<svg id="Layer_1" enable-background="new 0 0 100 100" viewBox="0 0 100 100" xmlns="http://www.w3.org/2000/svg"><path fill="#10b981" d="m79.0708923 7.3963413c1.3942413.6373663 1.8633957 2.3866854.9751968 3.6361837l-23.9555701 33.7002173 37.6526833-5.668148c1.4769974-.2223473 2.8058243.9214134 2.8058243 2.4150581v14.0202942c0 1.4521637-1.2595367 2.5835228-2.7033768 2.4282722l-37.7551231-4.0596924 24.0869026 32.2519569c.8520813 1.1409225.5513382 2.7659149-.6526337 3.5263138l-11.8353958 7.4749985c-1.2845917.8113174-2.990303.2653275-3.5649872-1.1411362l-15.4295235-37.7617377-15.3862915 37.6559333c-.5889053 1.4412613-2.3579464 1.9709244-3.6419983 1.0904312l-10.6321869-7.2906418c-1.1443291-.7846909-1.4058704-2.3639069-.5756111-3.4756088l24.1455612-32.3305092-36.3357253 5.6522332c-1.4806719.2303238-2.8176661-.914772-2.8176661-2.41325v-13.8735885c0-1.4984818 1.3369942-2.6435776 2.8176661-2.41325l36.3357239 5.6522293-24.0868974-32.2519493c-.8520813-1.1409225-.5513382-2.7659092.6526299-3.52631l11.8353996-7.4749899c1.2845879-.8113179 2.9902954-.2653272 3.5649796 1.1411362l15.4295272 37.7617369 15.5690994-38.1033178c.5249939-1.2848644 2.0138855-1.8744738 3.2762146-1.2974069z"/></svg>