<svg width="390" height="218" viewBox="0 0 390 218" fill="none" xmlns="http://www.w3.org/2000/svg">
<g filter="url(#filter0_f_2226_9277)">
<path fill-rule="evenodd" clip-rule="evenodd" d="M155.253 60.2405C182.272 61.9026 243.436 63.3354 263.842 69.6624C303.359 67.133 324.564 86.825 329.14 96.9534C334.35 108.487 303.024 149.165 274.974 155.704C247.665 162.072 213.428 152.658 180.727 151.211C137.576 151.211 115.182 152.462 94.285 147.487C69.9136 141.685 67.5712 133.312 63.1406 123.217C57.929 111.342 56.3043 97.2956 81.9633 89.1717C107.279 81.1565 121.415 58.1589 155.253 60.2405Z" fill="url(#paint0_radial_2226_9277)" fill-opacity="0.62"/>
<path fill-rule="evenodd" clip-rule="evenodd" d="M155.253 60.2405C182.272 61.9026 243.436 63.3354 263.842 69.6624C303.359 67.133 324.564 86.825 329.14 96.9534C334.35 108.487 303.024 149.165 274.974 155.704C247.665 162.072 213.428 152.658 180.727 151.211C137.576 151.211 115.182 152.462 94.285 147.487C69.9136 141.685 67.5712 133.312 63.1406 123.217C57.929 111.342 56.3043 97.2956 81.9633 89.1717C107.279 81.1565 121.415 58.1589 155.253 60.2405Z" fill="url(#paint1_radial_2226_9277)" fill-opacity="0.62"/>
</g>
<defs>
<filter id="filter0_f_2226_9277" x="0.700001" y="0.807911" width="388.312" height="216.384" filterUnits="userSpaceOnUse" color-interpolation-filters="sRGB">
<feFlood flood-opacity="0" result="BackgroundImageFix"/>
<feBlend mode="normal" in="SourceGraphic" in2="BackgroundImageFix" result="shape"/>
<feGaussianBlur stdDeviation="29.65" result="effect1_foregroundBlur_2226_9277"/>
</filter>
<radialGradient id="paint0_radial_2226_9277" cx="0" cy="0" r="1" gradientUnits="userSpaceOnUse" gradientTransform="translate(196.605 107.346) scale(121.453 37.0504)">
<stop stop-color="#FF0049" stop-opacity="0.75"/>
<stop offset="0.418269" stop-color="#FF0049"/>
<stop offset="0.524038" stop-color="#FFED49" stop-opacity="0.65"/>
<stop offset="1" stop-color="#9ADB7A" stop-opacity="0.52"/>
</radialGradient>
<radialGradient id="paint1_radial_2226_9277" cx="0" cy="0" r="1" gradientUnits="userSpaceOnUse" gradientTransform="translate(196.605 107.346) scale(121.453 37.0504)">
<stop stop-color="#FF0049" stop-opacity="0.75"/>
<stop offset="0.418269" stop-color="#FF0049"/>
<stop offset="0.524038" stop-color="#FFED49" stop-opacity="0.65"/>
<stop offset="1" stop-color="#9ADB7A" stop-opacity="0.52"/>
</radialGradient>
</defs>
</svg>
