<svg width="24" height="24" viewBox="0 0 24 24" fill="none" xmlns="http://www.w3.org/2000/svg">
<path d="M18.5 12C20.433 12 22 13.567 22 15.5C22 17.433 20.433 19 18.5 19H6.5C4.567 19 3 17.433 3 15.5C3 13.567 4.567 12 6.5 12C6.5 9.515 8.515 7.5 11 7.5C12.933 7.5 14.5 9.067 14.5 11C16.433 11 18 12.567 18 14.5C18.276 14.5 18.5 14.276 18.5 14C18.5 12.895 17.605 12 16.5 12C16.5 9.515 14.485 7.5 12 7.5C9.515 7.5 7.5 9.515 7.5 12C5.567 12 4 13.567 4 15.5C4 17.433 5.567 19 7.5 19H18.5C20.433 19 22 17.433 22 15.5C22 13.567 20.433 12 18.5 12Z" fill="#7A7ADB" fill-opacity="0.7"/>
<circle cx="9" cy="14" r="1" fill="white"/>
<circle cx="12" cy="15" r="1" fill="white"/>
<circle cx="15" cy="14" r="1" fill="white"/>
</svg> 