<svg width="600" height="400" viewBox="0 0 600 400" fill="none" xmlns="http://www.w3.org/2000/svg">
  <defs>
    <linearGradient id="bgGradient" x1="0%" y1="0%" x2="100%" y2="100%">
      <stop offset="0%" style="stop-color:#f8fafc;stop-opacity:1" />
      <stop offset="100%" style="stop-color:#e2e8f0;stop-opacity:1" />
    </linearGradient>
    <linearGradient id="cardGradient" x1="0%" y1="0%" x2="100%" y2="100%">
      <stop offset="0%" style="stop-color:#6366f1;stop-opacity:1" />
      <stop offset="100%" style="stop-color:#8b5cf6;stop-opacity:1" />
    </linearGradient>
  </defs>
  
  <!-- Background -->
  <rect width="600" height="400" rx="20" fill="url(#bgGradient)" />
  
  <!-- Dashboard Header -->
  <rect x="20" y="20" width="560" height="60" rx="12" fill="white" />
  <rect x="40" y="35" width="120" height="12" rx="6" fill="#e2e8f0" />
  <rect x="40" y="53" width="80" height="8" rx="4" fill="#cbd5e1" />
  
  <!-- Search bar -->
  <rect x="200" y="35" width="200" height="30" rx="15" fill="#f1f5f9" />
  <circle cx="380" cy="50" r="8" fill="#94a3b8" />
  
  <!-- User avatar -->
  <circle cx="520" cy="50" r="20" fill="url(#cardGradient)" />
  
  <!-- Main content area -->
  <rect x="20" y="100" width="560" height="280" rx="12" fill="white" />
  
  <!-- Stats cards -->
  <rect x="40" y="120" width="160" height="100" rx="8" fill="url(#cardGradient)" />
  <rect x="220" y="120" width="160" height="100" rx="8" fill="#10b981" />
  <rect x="400" y="120" width="160" height="100" rx="8" fill="#f59e0b" />
  
  <!-- Card content -->
  <rect x="55" y="140" width="60" height="8" rx="4" fill="white" opacity="0.8" />
  <rect x="55" y="155" width="30" height="20" rx="4" fill="white" />
  <rect x="55" y="185" width="80" height="6" rx="3" fill="white" opacity="0.6" />
  
  <rect x="235" y="140" width="60" height="8" rx="4" fill="white" opacity="0.8" />
  <rect x="235" y="155" width="40" height="20" rx="4" fill="white" />
  <rect x="235" y="185" width="90" height="6" rx="3" fill="white" opacity="0.6" />
  
  <rect x="415" y="140" width="60" height="8" rx="4" fill="white" opacity="0.8" />
  <rect x="415" y="155" width="35" height="20" rx="4" fill="white" />
  <rect x="415" y="185" width="85" height="6" rx="3" fill="white" opacity="0.6" />
  
  <!-- Chart area -->
  <rect x="40" y="240" width="520" height="120" rx="8" fill="#f8fafc" />
  
  <!-- Chart lines -->
  <polyline points="60,320 120,280 180,290 240,250 300,260 360,220 420,240 480,200 540,210" 
            stroke="#6366f1" stroke-width="3" fill="none" opacity="0.8" />
  <polyline points="60,340 120,330 180,320 240,310 300,300 360,290 420,280 480,270 540,260" 
            stroke="#10b981" stroke-width="3" fill="none" opacity="0.8" />
  
  <!-- Chart dots -->
  <circle cx="120" cy="280" r="4" fill="#6366f1" />
  <circle cx="240" cy="250" r="4" fill="#6366f1" />
  <circle cx="360" cy="220" r="4" fill="#6366f1" />
  <circle cx="480" cy="200" r="4" fill="#6366f1" />
  
  <circle cx="180" cy="320" r="4" fill="#10b981" />
  <circle cx="300" cy="300" r="4" fill="#10b981" />
  <circle cx="420" cy="280" r="4" fill="#10b981" />
  <circle cx="540" cy="260" r="4" fill="#10b981" />
  
  <!-- Sidebar elements -->
  <rect x="450" y="240" width="110" height="40" rx="6" fill="white" />
  <rect x="460" y="250" width="70" height="6" rx="3" fill="#e2e8f0" />
  <rect x="460" y="262" width="50" height="6" rx="3" fill="#cbd5e1" />
  
  <rect x="450" y="290" width="110" height="40" rx="6" fill="white" />
  <rect x="460" y="300" width="80" height="6" rx="3" fill="#e2e8f0" />
  <rect x="460" y="312" width="60" height="6" rx="3" fill="#cbd5e1" />
</svg> 