<svg width="145" height="42" viewBox="0 0 145 42" fill="none" xmlns="http://www.w3.org/2000/svg">
<path d="M109.419 31.9261H109.664V34.3348C109.906 34.0071 110.234 33.8432 110.647 33.8432C111.016 33.8432 111.311 33.9661 111.532 34.2119C111.753 34.4536 111.864 34.7608 111.864 35.1336C111.864 35.5145 111.751 35.834 111.526 36.0921C111.305 36.3461 111.008 36.473 110.635 36.473C110.447 36.473 110.277 36.4362 110.125 36.3624C109.974 36.2846 109.869 36.215 109.812 36.1535C109.754 36.088 109.705 36.0225 109.664 35.9569V36.4055H109.419V31.9261ZM109.91 35.9262C110.082 36.1351 110.322 36.2396 110.629 36.2396C110.936 36.2396 111.176 36.1351 111.348 35.9262C111.52 35.7173 111.606 35.4531 111.606 35.1336C111.606 34.8017 111.512 34.5437 111.323 34.3593C111.135 34.1709 110.905 34.0767 110.635 34.0767C110.369 34.0767 110.137 34.1689 109.941 34.3532C109.748 34.5375 109.652 34.7936 109.652 35.1213C109.652 35.4449 109.738 35.7132 109.91 35.9262Z" fill="url(#paint0_linear_2072_8228)"/>
<path d="M112.833 37.874L113.447 36.4485L112.255 33.8985H112.538L113.588 36.129L114.504 33.8985H114.786L113.115 37.874H112.833Z" fill="url(#paint1_linear_2072_8228)"/>
<path d="M118.873 34.3348V33.8985H119.119V36.4055H118.873V35.9569C118.648 36.301 118.322 36.473 117.896 36.473C117.556 36.473 117.268 36.3522 117.03 36.1105C116.792 35.8688 116.674 35.5493 116.674 35.152C116.674 34.7628 116.786 34.4474 117.012 34.2057C117.237 33.9641 117.532 33.8432 117.896 33.8432C118.314 33.8432 118.64 34.0071 118.873 34.3348ZM117.909 34.0767C117.642 34.0767 117.413 34.173 117.221 34.3655C117.028 34.5539 116.932 34.8099 116.932 35.1336C116.932 35.4326 117.02 35.6927 117.196 35.9139C117.372 36.131 117.612 36.2396 117.915 36.2396C118.214 36.2396 118.449 36.1331 118.621 35.92C118.798 35.7029 118.886 35.4408 118.886 35.1336C118.886 34.7936 118.785 34.5334 118.585 34.3532C118.384 34.1689 118.159 34.0767 117.909 34.0767Z" fill="url(#paint2_linear_2072_8228)"/>
<path d="M120.063 33.8985H120.309V35.4101C120.309 35.7009 120.362 35.9098 120.469 36.0368C120.583 36.172 120.749 36.2396 120.966 36.2396C121.183 36.2396 121.349 36.172 121.464 36.0368C121.571 35.9098 121.624 35.7009 121.624 35.4101V33.8985H121.87V35.4776C121.87 35.7726 121.806 36.002 121.679 36.1658C121.519 36.3706 121.282 36.473 120.966 36.473C120.651 36.473 120.413 36.3706 120.254 36.1658C120.127 36.002 120.063 35.7726 120.063 35.4776V33.8985Z" fill="url(#paint3_linear_2072_8228)"/>
<path d="M124.859 34.3348V31.9261H125.105V36.4055H124.859V35.9569C124.633 36.301 124.31 36.473 123.888 36.473C123.548 36.473 123.257 36.3563 123.015 36.1228C122.778 35.8852 122.659 35.5575 122.659 35.1397C122.659 34.7137 122.78 34.3921 123.022 34.175C123.263 33.9538 123.552 33.8432 123.888 33.8432C124.306 33.8432 124.629 34.0071 124.859 34.3348ZM123.888 34.0767C123.613 34.0767 123.382 34.1689 123.194 34.3532C123.009 34.5375 122.917 34.7977 122.917 35.1336C122.917 35.4817 123.013 35.7541 123.206 35.9508C123.398 36.1433 123.63 36.2396 123.9 36.2396C124.166 36.2396 124.394 36.1433 124.582 35.9508C124.775 35.7541 124.871 35.4817 124.871 35.1336C124.871 34.8304 124.783 34.5785 124.607 34.3778C124.431 34.1771 124.191 34.0767 123.888 34.0767Z" fill="url(#paint4_linear_2072_8228)"/>
<path d="M126.048 33.8985H126.294V36.4055H126.048V33.8985ZM126.325 33.2288C126.284 33.2697 126.233 33.2902 126.171 33.2902C126.11 33.2902 126.057 33.2697 126.012 33.2288C125.971 33.1837 125.95 33.1284 125.95 33.0629C125.95 32.9973 125.971 32.9441 126.012 32.9031C126.057 32.858 126.11 32.8355 126.171 32.8355C126.233 32.8355 126.284 32.858 126.325 32.9031C126.37 32.9441 126.393 32.9973 126.393 33.0629C126.393 33.1284 126.37 33.1837 126.325 33.2288Z" fill="url(#paint5_linear_2072_8228)"/>
<path d="M127.938 34.132H127.502V36.4055H127.256V34.132H126.98V33.8985H127.256V33.0014H127.502V33.8985H127.938V34.132Z" fill="url(#paint6_linear_2072_8228)"/>
<path d="M130.736 35.1827H128.592C128.575 35.4899 128.668 35.7439 128.868 35.9446C129.069 36.1412 129.309 36.2396 129.587 36.2396C129.784 36.2396 129.958 36.1884 130.11 36.0859C130.261 35.9794 130.378 35.8402 130.46 35.6681L130.669 35.791C130.574 35.9713 130.437 36.131 130.257 36.2703C130.077 36.4055 129.847 36.473 129.569 36.473C129.188 36.473 128.887 36.3502 128.666 36.1044C128.444 35.8545 128.334 35.5411 128.334 35.1643C128.334 34.7505 128.453 34.4269 128.69 34.1934C128.932 33.96 129.219 33.8432 129.55 33.8432C129.894 33.8432 130.181 33.9681 130.411 34.218C130.64 34.4679 130.749 34.7895 130.736 35.1827ZM128.61 34.9492H130.478C130.445 34.6952 130.343 34.4863 130.171 34.3225C130.003 34.1586 129.796 34.0767 129.55 34.0767C129.301 34.0767 129.09 34.1607 128.918 34.3286C128.745 34.4925 128.643 34.6993 128.61 34.9492Z" fill="url(#paint7_linear_2072_8228)"/>
<path d="M131.525 36.4055V33.8985H131.771V34.2242C131.882 33.9702 132.066 33.8432 132.324 33.8432C132.422 33.8432 132.51 33.8637 132.588 33.9047L132.465 34.1259C132.42 34.0931 132.359 34.0767 132.281 34.0767C132.162 34.0767 132.064 34.1115 131.986 34.1812C131.912 34.2467 131.861 34.3409 131.832 34.4638C131.808 34.5826 131.791 34.683 131.783 34.7649C131.775 34.8468 131.771 34.9451 131.771 35.0598V36.4055H131.525Z" fill="url(#paint8_linear_2072_8228)"/>
<path d="M133.183 36.4055V33.8985H133.429V34.2242C133.539 33.9702 133.724 33.8432 133.982 33.8432C134.08 33.8432 134.168 33.8637 134.246 33.9047L134.123 34.1259C134.078 34.0931 134.016 34.0767 133.939 34.0767C133.82 34.0767 133.721 34.1115 133.644 34.1812C133.57 34.2467 133.519 34.3409 133.49 34.4638C133.465 34.5826 133.449 34.683 133.441 34.7649C133.433 34.8468 133.429 34.9451 133.429 35.0598V36.4055H133.183Z" fill="url(#paint9_linear_2072_8228)"/>
<path d="M136.88 34.3348V33.8985H137.126V36.4055H136.88V35.9569C136.655 36.301 136.329 36.473 135.903 36.473C135.563 36.473 135.275 36.3522 135.037 36.1105C134.799 35.8688 134.681 35.5493 134.681 35.152C134.681 34.7628 134.793 34.4474 135.019 34.2057C135.244 33.9641 135.539 33.8432 135.903 33.8432C136.321 33.8432 136.647 34.0071 136.88 34.3348ZM135.916 34.0767C135.649 34.0767 135.42 34.173 135.227 34.3655C135.035 34.5539 134.939 34.8099 134.939 35.1336C134.939 35.4326 135.027 35.6927 135.203 35.9139C135.379 36.131 135.619 36.2396 135.922 36.2396C136.221 36.2396 136.456 36.1331 136.628 35.92C136.805 35.7029 136.893 35.4408 136.893 35.1336C136.893 34.7936 136.792 34.5334 136.592 34.3532C136.391 34.1689 136.166 34.0767 135.916 34.0767Z" fill="url(#paint10_linear_2072_8228)"/>
<path d="M102.809 19.8495V30.773H105.724V26.6391L106.035 26.3524L109.882 30.773H113.753L108.52 24.9665L113.37 20.4264H109.595L105.724 24.2018V19.8495H102.809Z" fill="url(#paint11_linear_2072_8228)"/>
<path d="M69.0648 22.9115H67.0576V30.773H64.1424V22.9115H62.9954V20.4264H64.1424V16.8899H67.0576V20.4264H69.0648V22.9115Z" fill="url(#paint12_linear_2072_8228)"/>
<path d="M70.5829 30.773V20.4264H73.4981V21.9796C73.8486 21.3105 74.2787 20.8326 74.7885 20.5459C75.2664 20.2432 75.8398 20.0919 76.5089 20.0919C76.8912 20.0919 77.3054 20.1715 77.7515 20.3308L77.3691 23.0549C77.0027 22.8 76.5487 22.6725 76.0071 22.6725C75.1628 22.6725 74.5176 22.9513 74.0716 23.5089C73.6893 23.9868 73.4981 24.7514 73.4981 25.8028V30.773H70.5829Z" fill="url(#paint13_linear_2072_8228)"/>
<path fill-rule="evenodd" clip-rule="evenodd" d="M87.1268 21.7645V20.4264H90.042V30.773H87.1268V29.4349C86.3462 30.55 85.2869 31.1075 83.9487 31.1075C82.3876 31.1075 81.1132 30.5739 80.1255 29.5066C79.1538 28.4392 78.6679 27.133 78.6679 25.5878C78.6679 24.0266 79.1458 22.7203 80.1016 21.6689C81.0574 20.6175 82.292 20.0919 83.8054 20.0919C85.3028 20.0919 86.4099 20.6494 87.1268 21.7645ZM86.6011 23.5089C86.0595 22.9513 85.3745 22.6725 84.5461 22.6725C83.7177 22.6725 83.0327 22.9513 82.4911 23.5089C81.9495 24.0664 81.6787 24.7594 81.6787 25.5878C81.6787 26.4161 81.9495 27.117 82.4911 27.6905C83.0327 28.2481 83.7177 28.5269 84.5461 28.5269C85.3745 28.5269 86.0595 28.2481 86.6011 27.6905C87.1427 27.117 87.4135 26.4161 87.4135 25.5878C87.4135 24.7594 87.1427 24.0664 86.6011 23.5089Z" fill="url(#paint14_linear_2072_8228)"/>
<path d="M100.611 20.7131V23.5806C99.958 22.9752 99.1615 22.6725 98.2216 22.6725C97.2977 22.6725 96.5808 22.9593 96.0711 23.5328C95.5613 24.0903 95.3064 24.7753 95.3064 25.5878C95.3064 26.4321 95.5852 27.133 96.1428 27.6905C96.7162 28.2481 97.4411 28.5269 98.3172 28.5269C99.1774 28.5269 99.9421 28.2242 100.611 27.6188V30.4624C99.7509 30.8925 98.8588 31.1075 97.9349 31.1075C96.326 31.1075 94.9958 30.6057 93.9444 29.6021C92.8452 28.5667 92.2956 27.2445 92.2956 25.6355C92.2956 23.8832 92.893 22.4814 94.0878 21.43C95.0914 20.5379 96.3339 20.0919 97.8154 20.0919C98.819 20.0919 99.7509 20.2989 100.611 20.7131Z" fill="url(#paint15_linear_2072_8228)"/>
<path d="M117.952 20.4264V30.773H115.036V20.4264H117.952Z" fill="url(#paint16_linear_2072_8228)"/>
<path d="M120.73 30.773V20.4264H123.645V21.7645C124.442 20.6494 125.509 20.0919 126.847 20.0919C128.201 20.0919 129.221 20.514 129.906 21.3583C130.448 22.0274 130.718 22.9991 130.718 24.2735V30.773H127.803V25.1337C127.803 24.162 127.62 23.485 127.254 23.1026C126.919 22.7522 126.465 22.577 125.892 22.577C125.095 22.577 124.498 22.8796 124.099 23.485C123.797 23.9629 123.645 24.6319 123.645 25.4922V30.773H120.73Z" fill="url(#paint17_linear_2072_8228)"/>
<path fill-rule="evenodd" clip-rule="evenodd" d="M141.38 21.7645V20.4264H144.295V30.3907C144.295 30.996 144.279 31.458 144.247 31.7766C144.231 32.0952 144.128 32.5253 143.937 33.067C143.762 33.6086 143.491 34.0945 143.124 34.5246C142.057 35.7353 140.615 36.3406 138.799 36.3406C138.757 36.3406 138.716 36.3403 138.674 36.3397V33.8525C138.723 33.8545 138.773 33.8555 138.823 33.8555C139.301 33.8555 139.707 33.7679 140.042 33.5927C140.392 33.4174 140.647 33.2183 140.806 32.9953C140.982 32.7882 141.109 32.5253 141.189 32.2067C141.284 31.8881 141.34 31.6412 141.356 31.466C141.372 31.3067 141.38 31.1314 141.38 30.9403V29.3871C140.631 30.5341 139.572 31.1075 138.202 31.1075C136.657 31.1075 135.398 30.5739 134.426 29.5066C133.455 28.4392 132.969 27.133 132.969 25.5878C132.969 24.0744 133.439 22.784 134.379 21.7167C135.319 20.6335 136.569 20.0919 138.13 20.0919C139.564 20.0919 140.647 20.6494 141.38 21.7645ZM140.902 23.5089C140.36 22.9513 139.675 22.6725 138.847 22.6725C138.019 22.6725 137.334 22.9513 136.792 23.5089C136.25 24.0664 135.98 24.7594 135.98 25.5878C135.98 26.4161 136.25 27.117 136.792 27.6905C137.334 28.2481 138.019 28.5269 138.847 28.5269C139.675 28.5269 140.36 28.2481 140.902 27.6905C141.444 27.117 141.714 26.4161 141.714 25.5878C141.714 24.7594 141.444 24.0664 140.902 23.5089Z" fill="url(#paint18_linear_2072_8228)"/>
<path fill-rule="evenodd" clip-rule="evenodd" d="M52.7541 21.7645V20.4264H55.6693V30.773H52.7541V29.4349C51.9735 30.55 50.9141 31.1075 49.576 31.1075C48.0149 31.1075 46.7404 30.5739 45.7528 29.5066C44.781 28.4392 44.2952 27.133 44.2952 25.5878C44.2952 24.0266 44.7731 22.7203 45.7289 21.6689C46.6847 20.6175 47.9193 20.0919 49.4326 20.0919C50.9301 20.0919 52.0372 20.6494 52.7541 21.7645ZM52.2284 23.5089C51.6868 22.9513 51.0018 22.6725 50.1734 22.6725C49.345 22.6725 48.66 22.9513 48.1184 23.5089C47.5768 24.0664 47.306 24.7594 47.306 25.5878C47.306 26.4161 47.5768 27.117 48.1184 27.6905C48.66 28.2481 49.345 28.5269 50.1734 28.5269C51.0018 28.5269 51.6868 28.2481 52.2284 27.6905C52.77 27.117 53.0408 26.4161 53.0408 25.5878C53.0408 24.7594 52.77 24.0664 52.2284 23.5089Z" fill="url(#paint19_linear_2072_8228)"/>
<path d="M58.4486 20.4264H61.3638V30.773H58.4486V20.4264Z" fill="url(#paint20_linear_2072_8228)"/>
<path d="M22.8624 10.9065C18.9534 11.1638 15.8624 14.416 15.8624 18.3901C15.8624 22.5322 19.2203 25.8901 23.3624 25.8901C27.3365 25.8901 30.5887 22.7991 30.846 18.8901H26.827C26.5844 20.5862 25.1257 21.8901 23.3624 21.8901C21.4294 21.8901 19.8624 20.3231 19.8624 18.3901C19.8624 16.6269 21.1663 15.1682 22.8624 14.9255V10.9065Z" fill="#7A7ADB"/>
<path d="M12.7424 11.7937C11.5508 13.7083 10.8624 15.9686 10.8624 18.3898C10.8624 25.2933 16.4589 30.8898 23.3624 30.8898C27.4601 30.8898 31.0972 28.9181 33.3769 25.8716L30.0679 23.6141C28.5123 25.6078 26.0871 26.8898 23.3624 26.8898C18.668 26.8898 14.8624 23.0842 14.8624 18.3898C14.8624 16.8049 15.2962 15.3213 16.0514 14.0513L12.7424 11.7937Z" fill="#7A7ADB"/>
<path d="M23.8624 31.8808C23.6965 31.8868 23.5298 31.8899 23.3624 31.8899C15.9066 31.8899 9.86241 25.8457 9.86241 18.3899C9.86241 10.934 15.9066 4.88989 23.3624 4.88989C30.3112 4.88989 36.0339 10.14 36.78 16.8899H40.799C40.0382 7.92709 32.5221 0.889893 23.3624 0.889893C13.6974 0.889893 5.86241 8.72491 5.86241 18.3899C5.86241 28.0549 13.6974 35.8899 23.3624 35.8899C23.5296 35.8899 23.6963 35.8876 23.8624 35.8829V31.8808Z" fill="#7A7ADB"/>
<path d="M25.8593 36.856C20.1636 37.8076 14.1082 36.0861 9.71369 31.6915C4.89011 26.868 3.287 20.0434 4.90436 13.8898H0.793127C-0.746528 21.0995 1.28418 28.9189 6.88526 34.52C12.0599 39.6946 19.1279 41.8218 25.8593 40.9017L25.8593 36.856Z" fill="#7A7ADB"/>
<defs>
<linearGradient id="paint0_linear_2072_8228" x1="142.49" y1="16.8899" x2="136.109" y2="53.5583" gradientUnits="userSpaceOnUse">
<stop stop-color="#121212"/>
<stop offset="1"/>
</linearGradient>
<linearGradient id="paint1_linear_2072_8228" x1="142.49" y1="16.8899" x2="136.109" y2="53.5583" gradientUnits="userSpaceOnUse">
<stop stop-color="#121212"/>
<stop offset="1"/>
</linearGradient>
<linearGradient id="paint2_linear_2072_8228" x1="142.49" y1="16.8899" x2="136.109" y2="53.5583" gradientUnits="userSpaceOnUse">
<stop stop-color="#121212"/>
<stop offset="1"/>
</linearGradient>
<linearGradient id="paint3_linear_2072_8228" x1="142.49" y1="16.8899" x2="136.109" y2="53.5583" gradientUnits="userSpaceOnUse">
<stop stop-color="#121212"/>
<stop offset="1"/>
</linearGradient>
<linearGradient id="paint4_linear_2072_8228" x1="142.49" y1="16.8899" x2="136.109" y2="53.5583" gradientUnits="userSpaceOnUse">
<stop stop-color="#121212"/>
<stop offset="1"/>
</linearGradient>
<linearGradient id="paint5_linear_2072_8228" x1="142.49" y1="16.8899" x2="136.109" y2="53.5583" gradientUnits="userSpaceOnUse">
<stop stop-color="#121212"/>
<stop offset="1"/>
</linearGradient>
<linearGradient id="paint6_linear_2072_8228" x1="142.49" y1="16.8899" x2="136.109" y2="53.5583" gradientUnits="userSpaceOnUse">
<stop stop-color="#121212"/>
<stop offset="1"/>
</linearGradient>
<linearGradient id="paint7_linear_2072_8228" x1="142.49" y1="16.8899" x2="136.109" y2="53.5583" gradientUnits="userSpaceOnUse">
<stop stop-color="#121212"/>
<stop offset="1"/>
</linearGradient>
<linearGradient id="paint8_linear_2072_8228" x1="142.49" y1="16.8899" x2="136.109" y2="53.5583" gradientUnits="userSpaceOnUse">
<stop stop-color="#121212"/>
<stop offset="1"/>
</linearGradient>
<linearGradient id="paint9_linear_2072_8228" x1="142.49" y1="16.8899" x2="136.109" y2="53.5583" gradientUnits="userSpaceOnUse">
<stop stop-color="#121212"/>
<stop offset="1"/>
</linearGradient>
<linearGradient id="paint10_linear_2072_8228" x1="142.49" y1="16.8899" x2="136.109" y2="53.5583" gradientUnits="userSpaceOnUse">
<stop stop-color="#121212"/>
<stop offset="1"/>
</linearGradient>
<linearGradient id="paint11_linear_2072_8228" x1="142.49" y1="16.8899" x2="136.109" y2="53.5583" gradientUnits="userSpaceOnUse">
<stop stop-color="#121212"/>
<stop offset="1"/>
</linearGradient>
<linearGradient id="paint12_linear_2072_8228" x1="142.49" y1="16.8899" x2="136.109" y2="53.5583" gradientUnits="userSpaceOnUse">
<stop stop-color="#121212"/>
<stop offset="1"/>
</linearGradient>
<linearGradient id="paint13_linear_2072_8228" x1="142.49" y1="16.8899" x2="136.109" y2="53.5583" gradientUnits="userSpaceOnUse">
<stop stop-color="#121212"/>
<stop offset="1"/>
</linearGradient>
<linearGradient id="paint14_linear_2072_8228" x1="142.49" y1="16.8899" x2="136.109" y2="53.5583" gradientUnits="userSpaceOnUse">
<stop stop-color="#121212"/>
<stop offset="1"/>
</linearGradient>
<linearGradient id="paint15_linear_2072_8228" x1="142.49" y1="16.8899" x2="136.109" y2="53.5583" gradientUnits="userSpaceOnUse">
<stop stop-color="#121212"/>
<stop offset="1"/>
</linearGradient>
<linearGradient id="paint16_linear_2072_8228" x1="142.49" y1="16.8899" x2="136.109" y2="53.5583" gradientUnits="userSpaceOnUse">
<stop stop-color="#121212"/>
<stop offset="1"/>
</linearGradient>
<linearGradient id="paint17_linear_2072_8228" x1="142.49" y1="16.8899" x2="136.109" y2="53.5583" gradientUnits="userSpaceOnUse">
<stop stop-color="#121212"/>
<stop offset="1"/>
</linearGradient>
<linearGradient id="paint18_linear_2072_8228" x1="142.49" y1="16.8899" x2="136.109" y2="53.5583" gradientUnits="userSpaceOnUse">
<stop stop-color="#121212"/>
<stop offset="1"/>
</linearGradient>
<linearGradient id="paint19_linear_2072_8228" x1="142.49" y1="16.8899" x2="136.109" y2="53.5583" gradientUnits="userSpaceOnUse">
<stop stop-color="#121212"/>
<stop offset="1"/>
</linearGradient>
<linearGradient id="paint20_linear_2072_8228" x1="142.49" y1="16.8899" x2="136.109" y2="53.5583" gradientUnits="userSpaceOnUse">
<stop stop-color="#121212"/>
<stop offset="1"/>
</linearGradient>
</defs>
</svg>
