<svg width="40" height="40" viewBox="0 0 40 40" fill="none" xmlns="http://www.w3.org/2000/svg">
  <defs>
    <linearGradient id="gradient" x1="0%" y1="0%" x2="100%" y2="100%">
      <stop offset="0%" style="stop-color:#6366f1;stop-opacity:1" />
      <stop offset="100%" style="stop-color:#8b5cf6;stop-opacity:1" />
    </linearGradient>
  </defs>
  
  <!-- Background circle -->
  <circle cx="20" cy="20" r="18" fill="url(#gradient)" />
  
  <!-- AI Brain Icon -->
  <path d="M12 15C12 11.6863 14.6863 9 18 9H22C25.3137 9 28 11.6863 28 15V17C28 17.5523 27.5523 18 27 18C26.4477 18 26 17.5523 26 17V15C26 12.7909 24.2091 11 22 11H18C15.7909 11 14 12.7909 14 15V25C14 27.2091 15.7909 29 18 29H22C24.2091 29 26 27.2091 26 25V23C26 22.4477 26.4477 22 27 22C27.5523 22 28 22.4477 28 23V25C28 28.3137 25.3137 31 22 31H18C14.6863 31 12 28.3137 12 25V15Z" fill="white" />
  
  <!-- Neural connections -->
  <circle cx="17" cy="16" r="1.5" fill="white" />
  <circle cx="23" cy="16" r="1.5" fill="white" />
  <circle cx="17" cy="24" r="1.5" fill="white" />
  <circle cx="23" cy="24" r="1.5" fill="white" />
  <circle cx="20" cy="20" r="1.5" fill="white" />
  
  <!-- Connection lines -->
  <line x1="17" y1="16" x2="20" y2="20" stroke="white" stroke-width="1" opacity="0.6" />
  <line x1="23" y1="16" x2="20" y2="20" stroke="white" stroke-width="1" opacity="0.6" />
  <line x1="17" y1="24" x2="20" y2="20" stroke="white" stroke-width="1" opacity="0.6" />
  <line x1="23" y1="24" x2="20" y2="20" stroke="white" stroke-width="1" opacity="0.6" />
</svg> 