<svg width="520" height="503" viewBox="0 0 520 503" fill="none" xmlns="http://www.w3.org/2000/svg">
<path d="M39.3633 268.353L113.172 268.487C113.137 275.548 114.238 284.004 117.549 290.312L120.619 295.533C143.403 329.249 196.147 316.425 200.975 277.919C201.372 274.748 201.254 271.43 201.283 268.24L270.294 268.316L270.251 313.676C270.243 321.008 270.831 328.834 270.001 336.085C269.245 337.24 266.582 336.186 265.317 335.982C229.256 330.095 200.192 367.323 215.664 400.232C221.48 412.605 230.65 421.118 243.519 425.673C249.193 427.63 255.153 427.877 261.06 427.068L270.181 425.379L270.112 502.377L105.149 502.547C95.1179 502.544 84.7056 503.213 74.8548 501.045C53.2168 496.292 39.403 475.728 39.3778 454.362L39.3633 268.353Z" fill="#ECE3FB"/>
<path d="M285.97 22.251L462.797 22.4662C468.563 22.4673 475.069 21.8775 480.719 22.8258C500.035 26.0694 514.782 41.9384 518.291 60.9379C519.522 67.6104 518.879 75.0895 518.883 81.8829L518.879 251.953L441.327 251.612L443.738 242.299C447.039 227.384 441.173 212.189 430.911 201.296L427.011 197.905C418.073 191.085 405.092 188.014 393.997 189.622L384.816 191.606C358.254 200.028 348.133 226.199 356.455 251.65C353.405 252.083 350.264 251.926 347.187 251.93L285.933 251.937L285.88 180.789C285.846 177.452 286.622 172.493 284.839 169.514L284.635 169.18C278.876 159.716 270.164 167.798 263.121 170.197C235.651 179.555 209.228 137.447 234.671 115.084C241.815 108.805 256.337 104.703 265.585 108.957C269.448 110.734 271.3 114.951 276.049 115.181C287.033 115.714 286.047 105.73 286.043 98.1896L285.97 22.251Z" fill="#ECE3FB"/>
<path d="M398.747 205.28C420.247 203.533 435.503 227.34 427.86 246.612C426.977 248.839 423.746 253.307 424.017 255.581C425.65 269.303 433.309 268.169 443.845 268.196L518.893 268.236L518.886 443.833C518.883 450.328 519.635 457.907 518.267 464.263C513.721 485.392 499.356 498.808 477.571 502.113C472.701 502.852 467.573 502.557 462.657 502.561L339.386 502.531L286.281 502.564C285.789 500.708 286.067 498.246 286.05 496.286L285.943 422.305C285.926 416.609 286.415 406.314 277.695 407.173L277.049 407.26C267.504 408.454 265.648 414.241 253.047 411.98L252.632 411.903C221.858 406.464 219.555 357.867 250.382 351.616L250.907 351.512C267.228 348.261 269.908 355.977 276.598 356.011L277.565 356.017C286.967 356.101 285.953 347.004 285.963 340.615L285.843 268.246L342.778 268.209C353.8 268.213 370.848 272.227 373.293 258.299L373.396 257.65C374.236 252.951 371.601 250.287 370.206 246.086C363.279 225.232 377.574 206.483 398.747 205.28Z" fill="#ECE3FB"/>
<g clip-path="url(#clip0_27_23)">
<path d="M160.611 0.0464448L246.883 0.222779L246.766 71.7544C244.436 70.9301 242.013 69.9168 239.59 69.4202L239.219 69.3472C231.222 67.6709 220.05 69.0295 212.708 72.5967C174.98 90.9284 177.072 147.06 218.011 160.672C226.845 163.609 238.051 163.663 246.487 159.358L247 227.109C246.204 227.457 244.834 227.235 243.951 227.209L178.954 227.043C176.335 227.043 173.549 226.86 170.955 227.179L170.488 227.245C167.878 227.588 163.665 231.781 163.586 234.207C163.245 244.723 168.383 246.321 160.641 259.679C154.877 269.255 145.143 274.795 133.745 273.907L131.797 273.779C118.191 272.776 106.673 258.488 106.06 245.285C105.431 231.758 110.82 227.293 91.8844 227.109L0 226.76L18.8329 48.8984C18.8054 25.0177 31.6541 5.67535 56.0976 0.638872C60.5294 -0.274362 65.2643 0.0602692 69.7695 0.0581006L160.611 0.0464448Z" fill="#6B6BCF"/>
<path fill-rule="evenodd" clip-rule="evenodd" d="M182.22 7.2128C182.22 -14.1155 199.532 -31.4708 220.838 -31.4708C242.123 -31.4708 259.434 -14.1158 259.434 7.2128C259.434 28.546 242.123 45.8938 220.838 45.8938C199.531 45.8938 182.22 28.546 182.22 7.2128ZM135.266 3.52225C133.935 5.93599 133.935 8.48959 135.266 10.9056C152.555 42.017 185.342 61.3439 220.838 61.3439C256.311 61.3439 289.098 42.0174 306.387 10.9056C307.742 8.48959 307.742 5.93599 306.387 3.52225C289.098 -27.5892 256.312 -46.9138 220.838 -46.9138C185.342 -46.9138 152.555 -27.5892 135.266 3.52225ZM220.838 -18.7933C206.511 -18.7933 194.87 -7.12831 194.87 7.2128C194.87 21.5535 206.511 33.2189 220.838 33.2189C235.142 33.2189 246.783 21.5539 246.783 7.2128C246.783 -7.12831 235.142 -18.7933 220.838 -18.7933Z" fill="#7171D6"/>
<path d="M40.7724 37.251V25.6146H47.7951V26.8646H42.1815V30.7964H47.4315V32.0464H42.1815V36.001H47.886V37.251H40.7724ZM51.0167 40.5237C50.7894 40.5237 50.5868 40.5048 50.4087 40.4669C50.2307 40.4328 50.1076 40.3987 50.0394 40.3646L50.3803 39.1828C50.7061 39.2661 50.994 39.2964 51.244 39.2737C51.494 39.251 51.7156 39.1392 51.9087 38.9385C52.1057 38.7415 52.2856 38.4214 52.4485 37.9782L52.6985 37.2964L49.4712 28.5237H50.9258L53.3349 35.4782H53.4258L55.8349 28.5237H57.2894L53.5849 38.5237C53.4182 38.9745 53.2118 39.3476 52.9656 39.643C52.7193 39.9423 52.4334 40.1639 52.1076 40.3078C51.7856 40.4517 51.422 40.5237 51.0167 40.5237ZM62.4059 37.4328C61.565 37.4328 60.8396 37.2472 60.2298 36.876C59.6237 36.501 59.1559 35.9782 58.8263 35.3078C58.5006 34.6336 58.3377 33.8495 58.3377 32.9555C58.3377 32.0616 58.5006 31.2737 58.8263 30.5919C59.1559 29.9063 59.6142 29.3722 60.2013 28.9896C60.7923 28.6032 61.4817 28.4101 62.2695 28.4101C62.7241 28.4101 63.1729 28.4858 63.6161 28.6373C64.0593 28.7889 64.4627 29.0351 64.8263 29.376C65.19 29.7131 65.4798 30.1601 65.6957 30.7169C65.9116 31.2737 66.0195 31.9593 66.0195 32.7737V33.3419H59.2923V32.1828H64.6559C64.6559 31.6904 64.5574 31.251 64.3604 30.8646C64.1673 30.4782 63.8907 30.1733 63.5309 29.9498C63.1748 29.7264 62.7544 29.6146 62.2695 29.6146C61.7354 29.6146 61.2733 29.7472 60.8832 30.0123C60.4968 30.2737 60.1995 30.6146 59.9911 31.0351C59.7828 31.4555 59.6786 31.9063 59.6786 32.3873V33.1601C59.6786 33.8192 59.7923 34.3779 60.0195 34.8362C60.2506 35.2907 60.5707 35.6373 60.9798 35.876C61.3888 36.1108 61.8642 36.2282 62.4059 36.2282C62.7582 36.2282 63.0763 36.179 63.3604 36.0805C63.6483 35.9782 63.8964 35.8267 64.1048 35.626C64.3131 35.4214 64.4741 35.1676 64.5877 34.8646L65.8832 35.2282C65.7468 35.6676 65.5176 36.054 65.1957 36.3873C64.8737 36.7169 64.476 36.9745 64.0025 37.1601C63.529 37.3419 62.9968 37.4328 62.4059 37.4328ZM73.0593 31.6373V32.8873H67.9684V31.6373H73.0593ZM79.2141 28.5237V29.6601H74.6914V28.5237H79.2141ZM76.0096 26.4328H77.3505V34.751C77.3505 35.1298 77.4054 35.4139 77.5153 35.6032C77.6289 35.7889 77.7728 35.9139 77.9471 35.9782C78.1251 36.0389 78.3126 36.0692 78.5096 36.0692C78.6573 36.0692 78.7785 36.0616 78.8732 36.0464C78.9679 36.0275 79.0437 36.0123 79.1005 36.001L79.3732 37.2055C79.2823 37.2396 79.1554 37.2737 78.9925 37.3078C78.8297 37.3457 78.6232 37.3646 78.3732 37.3646C77.9944 37.3646 77.6232 37.2832 77.2596 37.1203C76.8997 36.9574 76.6005 36.7093 76.3619 36.376C76.127 36.0426 76.0096 35.6222 76.0096 35.1146V26.4328ZM81.2312 37.251V28.5237H82.5266V29.8419H82.6175C82.7766 29.4101 83.0645 29.0597 83.4812 28.7907C83.8978 28.5218 84.3675 28.3873 84.8903 28.3873C84.9888 28.3873 85.1119 28.3892 85.2596 28.393C85.4073 28.3968 85.5191 28.4025 85.5948 28.4101V29.7737C85.5494 29.7623 85.4452 29.7453 85.2823 29.7226C85.1232 29.6961 84.9547 29.6828 84.7766 29.6828C84.3524 29.6828 83.9736 29.7718 83.6403 29.9498C83.3107 30.1241 83.0494 30.3665 82.8562 30.6771C82.6668 30.9839 82.5721 31.3343 82.5721 31.7282V37.251H81.2312ZM89.7525 37.4555C89.1995 37.4555 88.6976 37.3514 88.2468 37.143C87.796 36.9309 87.4381 36.626 87.1729 36.2282C86.9078 35.8267 86.7752 35.3419 86.7752 34.7737C86.7752 34.2737 86.8737 33.8684 87.0707 33.5578C87.2676 33.2434 87.5309 32.9972 87.8604 32.8192C88.19 32.6411 88.5536 32.5086 88.9513 32.4214C89.3529 32.3305 89.7563 32.2586 90.1616 32.2055C90.6919 32.1373 91.1218 32.0862 91.4513 32.0521C91.7847 32.0142 92.0271 31.9517 92.1786 31.8646C92.3339 31.7775 92.4116 31.626 92.4116 31.4101V31.3646C92.4116 30.804 92.2582 30.3684 91.9513 30.0578C91.6483 29.7472 91.1881 29.5919 90.5707 29.5919C89.9305 29.5919 89.4286 29.732 89.065 30.0123C88.7013 30.2926 88.4457 30.5919 88.2979 30.9101L87.0252 30.4555C87.2525 29.9252 87.5555 29.5123 87.9343 29.2169C88.3169 28.9176 88.7335 28.7093 89.1843 28.5919C89.6388 28.4707 90.0858 28.4101 90.5252 28.4101C90.8055 28.4101 91.1275 28.4442 91.4911 28.5123C91.8585 28.5767 92.2127 28.7112 92.5536 28.9157C92.8983 29.1203 93.1843 29.429 93.4116 29.8419C93.6388 30.2548 93.7525 30.8078 93.7525 31.501V37.251H92.4116V36.0692H92.3434C92.2525 36.2586 92.101 36.4612 91.8888 36.6771C91.6767 36.893 91.3945 37.0767 91.0423 37.2282C90.69 37.3798 90.2601 37.4555 89.7525 37.4555ZM89.957 36.251C90.4873 36.251 90.9343 36.1468 91.2979 35.9385C91.6654 35.7301 91.9419 35.4612 92.1275 35.1317C92.3169 34.8021 92.4116 34.4555 92.4116 34.0919V32.8646C92.3548 32.9328 92.2298 32.9953 92.0366 33.0521C91.8472 33.1051 91.6275 33.1525 91.3775 33.1942C91.1313 33.232 90.8907 33.2661 90.6559 33.2964C90.4248 33.3229 90.2373 33.3457 90.0934 33.3646C89.7449 33.4101 89.4192 33.4839 89.1161 33.5862C88.8169 33.6847 88.5745 33.8343 88.3888 34.0351C88.207 34.232 88.1161 34.501 88.1161 34.8419C88.1161 35.3078 88.2885 35.6601 88.6332 35.8987C88.9817 36.1336 89.4229 36.251 89.957 36.251ZM99.7454 37.4328C98.9272 37.4328 98.2227 37.2396 97.6317 36.8532C97.0408 36.4669 96.5863 35.9347 96.2681 35.2567C95.9499 34.5786 95.7908 33.804 95.7908 32.9328C95.7908 32.0464 95.9537 31.2642 96.2795 30.5862C96.609 29.9044 97.0674 29.3722 97.6545 28.9896C98.2454 28.6032 98.9348 28.4101 99.7227 28.4101C100.336 28.4101 100.889 28.5237 101.382 28.751C101.874 28.9782 102.278 29.2964 102.592 29.7055C102.906 30.1146 103.101 30.5919 103.177 31.1373H101.836C101.734 30.7396 101.507 30.3873 101.154 30.0805C100.806 29.7699 100.336 29.6146 99.7454 29.6146C99.2227 29.6146 98.7643 29.751 98.3704 30.0237C97.9802 30.2926 97.6753 30.6733 97.4556 31.1657C97.2397 31.6544 97.1317 32.2282 97.1317 32.8873C97.1317 33.5616 97.2378 34.1487 97.4499 34.6487C97.6658 35.1487 97.9689 35.537 98.359 35.8135C98.753 36.09 99.2151 36.2282 99.7454 36.2282C100.094 36.2282 100.41 36.1676 100.694 36.0464C100.978 35.9252 101.219 35.751 101.416 35.5237C101.613 35.2964 101.753 35.0237 101.836 34.7055H103.177C103.101 35.2207 102.914 35.6847 102.615 36.0976C102.319 36.5067 101.927 36.8324 101.439 37.0748C100.954 37.3135 100.389 37.4328 99.7454 37.4328ZM106.387 34.0692L106.365 32.4101H106.637L110.456 28.5237H112.115L108.047 32.6373H107.933L106.387 34.0692ZM105.137 37.251V25.6146H106.478V37.251H105.137ZM110.683 37.251L107.274 32.9328L108.228 32.001L112.387 37.251H110.683ZM113.841 37.251V28.5237H115.181V37.251H113.841ZM114.522 27.0692C114.261 27.0692 114.036 26.9801 113.846 26.8021C113.661 26.6241 113.568 26.4101 113.568 26.1601C113.568 25.9101 113.661 25.6961 113.846 25.518C114.036 25.34 114.261 25.251 114.522 25.251C114.784 25.251 115.007 25.34 115.193 25.518C115.382 25.6961 115.477 25.9101 115.477 26.1601C115.477 26.4101 115.382 26.6241 115.193 26.8021C115.007 26.9801 114.784 27.0692 114.522 27.0692ZM118.978 32.001V37.251H117.637V28.5237H118.933V29.8873H119.047C119.251 29.4442 119.562 29.0881 119.978 28.8192C120.395 28.5464 120.933 28.4101 121.592 28.4101C122.183 28.4101 122.7 28.5313 123.143 28.7737C123.586 29.0123 123.931 29.376 124.177 29.8646C124.423 30.3495 124.547 30.9631 124.547 31.7055V37.251H123.206V31.7964C123.206 31.1108 123.028 30.5767 122.672 30.1942C122.315 29.8078 121.827 29.6146 121.206 29.6146C120.778 29.6146 120.395 29.7074 120.058 29.893C119.725 30.0786 119.461 30.3495 119.268 30.7055C119.075 31.0616 118.978 31.4934 118.978 32.001ZM130.52 40.7055C129.872 40.7055 129.315 40.6222 128.849 40.4555C128.383 40.2926 127.995 40.0767 127.684 39.8078C127.377 39.5426 127.133 39.2586 126.951 38.9555L128.02 38.2055C128.141 38.3646 128.294 38.5464 128.48 38.751C128.665 38.9593 128.919 39.1392 129.241 39.2907C129.567 39.4461 129.993 39.5237 130.52 39.5237C131.224 39.5237 131.806 39.3532 132.264 39.0123C132.722 38.6714 132.951 38.1373 132.951 37.4101V35.6373H132.838C132.739 35.7964 132.599 35.9934 132.417 36.2282C132.239 36.4593 131.982 36.6657 131.645 36.8476C131.311 37.0256 130.86 37.1146 130.292 37.1146C129.588 37.1146 128.955 36.9479 128.395 36.6146C127.838 36.2813 127.396 35.7964 127.071 35.1601C126.749 34.5237 126.588 33.751 126.588 32.8419C126.588 31.9479 126.745 31.1695 127.059 30.5067C127.374 29.84 127.811 29.3248 128.372 28.9612C128.932 28.5938 129.58 28.4101 130.315 28.4101C130.883 28.4101 131.334 28.5048 131.667 28.6942C132.004 28.8798 132.262 29.0919 132.44 29.3305C132.622 29.5654 132.762 29.7586 132.86 29.9101H132.997V28.5237H134.292V37.501C134.292 38.251 134.122 38.8608 133.781 39.3305C133.444 39.804 132.989 40.1506 132.417 40.3703C131.849 40.5938 131.217 40.7055 130.52 40.7055ZM130.474 35.9101C131.012 35.9101 131.467 35.787 131.838 35.5407C132.209 35.2945 132.491 34.9404 132.684 34.4782C132.877 34.0161 132.974 33.4631 132.974 32.8192C132.974 32.1904 132.879 31.6354 132.69 31.1544C132.501 30.6733 132.22 30.2964 131.849 30.0237C131.478 29.751 131.02 29.6146 130.474 29.6146C129.906 29.6146 129.432 29.7586 129.054 30.0464C128.679 30.3343 128.396 30.7207 128.207 31.2055C128.021 31.6904 127.929 32.2282 127.929 32.8192C127.929 33.4252 128.023 33.9612 128.213 34.4271C128.406 34.8892 128.69 35.2529 129.065 35.518C129.444 35.7794 129.913 35.9101 130.474 35.9101ZM41.9315 54.2737L46.136 47.5237H47.6815V56.251H46.3406V49.501L42.1587 56.251H40.5906V47.5237H41.9315V54.2737ZM53.6829 56.4328C52.8647 56.4328 52.1602 56.2396 51.5692 55.8532C50.9783 55.4669 50.5238 54.9347 50.2056 54.2567C49.8874 53.5786 49.7283 52.804 49.7283 51.9328C49.7283 51.0464 49.8912 50.2642 50.217 49.5862C50.5465 48.9044 51.0049 48.3722 51.592 47.9896C52.1829 47.6032 52.8723 47.4101 53.6602 47.4101C54.2738 47.4101 54.8268 47.5237 55.3192 47.751C55.8117 47.9782 56.2151 48.2964 56.5295 48.7055C56.8439 49.1146 57.0389 49.5919 57.1147 50.1373H55.7738C55.6715 49.7396 55.4442 49.3873 55.092 49.0805C54.7435 48.7699 54.2738 48.6146 53.6829 48.6146C53.1602 48.6146 52.7018 48.751 52.3079 49.0237C51.9177 49.2926 51.6128 49.6733 51.3931 50.1657C51.1772 50.6544 51.0692 51.2282 51.0692 51.8873C51.0692 52.5616 51.1753 53.1487 51.3874 53.6487C51.6033 54.1487 51.9064 54.537 52.2965 54.8135C52.6905 55.09 53.1526 55.2282 53.6829 55.2282C54.0314 55.2282 54.3477 55.1676 54.6317 55.0464C54.9158 54.9252 55.1564 54.751 55.3533 54.5237C55.5503 54.2964 55.6905 54.0237 55.7738 53.7055H57.1147C57.0389 54.2207 56.8514 54.6847 56.5522 55.0976C56.2567 55.5067 55.8647 55.8324 55.3761 56.0748C54.8912 56.3135 54.3268 56.4328 53.6829 56.4328ZM62.6204 56.4328C61.8022 56.4328 61.0977 56.2396 60.5067 55.8532C59.9158 55.4669 59.4613 54.9347 59.1431 54.2567C58.8249 53.5786 58.6658 52.804 58.6658 51.9328C58.6658 51.0464 58.8287 50.2642 59.1545 49.5862C59.484 48.9044 59.9424 48.3722 60.5295 47.9896C61.1204 47.6032 61.8098 47.4101 62.5977 47.4101C63.2113 47.4101 63.7643 47.5237 64.2567 47.751C64.7492 47.9782 65.1526 48.2964 65.467 48.7055C65.7814 49.1146 65.9764 49.5919 66.0522 50.1373H64.7113C64.609 49.7396 64.3817 49.3873 64.0295 49.0805C63.681 48.7699 63.2113 48.6146 62.6204 48.6146C62.0977 48.6146 61.6393 48.751 61.2454 49.0237C60.8552 49.2926 60.5503 49.6733 60.3306 50.1657C60.1147 50.6544 60.0067 51.2282 60.0067 51.8873C60.0067 52.5616 60.1128 53.1487 60.3249 53.6487C60.5408 54.1487 60.8439 54.537 61.234 54.8135C61.628 55.09 62.0901 55.2282 62.6204 55.2282C62.9689 55.2282 63.2852 55.1676 63.5692 55.0464C63.8533 54.9252 64.0939 54.751 64.2908 54.5237C64.4878 54.2964 64.628 54.0237 64.7113 53.7055H66.0522C65.9764 54.2207 65.7889 54.6847 65.4897 55.0976C65.1942 55.5067 64.8022 55.8324 64.3136 56.0748C63.8287 56.3135 63.2643 56.4328 62.6204 56.4328ZM67.2397 56.251V55.001H67.5579C67.8192 55.001 68.0371 54.9498 68.2113 54.8476C68.3855 54.7415 68.5257 54.5578 68.6317 54.2964C68.7416 54.0313 68.8249 53.6639 68.8817 53.1942C68.9424 52.7207 68.9859 52.1184 69.0124 51.3873L69.1715 47.5237H74.9897V56.251H73.6488V48.7737H70.4442L70.3079 51.8873C70.2776 52.6032 70.2132 53.2339 70.1147 53.7794C70.02 54.3211 69.8742 54.7756 69.6772 55.143C69.484 55.5104 69.2264 55.787 68.9045 55.9726C68.5825 56.1582 68.1791 56.251 67.6942 56.251H67.2397ZM81.109 56.4328C80.2681 56.4328 79.5427 56.2472 78.9329 55.876C78.3268 55.501 77.859 54.9782 77.5295 54.3078C77.2037 53.6336 77.0408 52.8495 77.0408 51.9555C77.0408 51.0616 77.2037 50.2737 77.5295 49.5919C77.859 48.9063 78.3174 48.3722 78.9045 47.9896C79.4954 47.6032 80.1848 47.4101 80.9727 47.4101C81.4272 47.4101 81.8761 47.4858 82.3192 47.6373C82.7624 47.7889 83.1658 48.0351 83.5295 48.376C83.8931 48.7131 84.1829 49.1601 84.3988 49.7169C84.6147 50.2737 84.7227 50.9593 84.7227 51.7737V52.3419H77.9954V51.1828H83.359C83.359 50.6904 83.2605 50.251 83.0636 49.8646C82.8704 49.4782 82.5939 49.1733 82.234 48.9498C81.878 48.7264 81.4575 48.6146 80.9727 48.6146C80.4386 48.6146 79.9764 48.7472 79.5863 49.0123C79.1999 49.2737 78.9026 49.6146 78.6942 50.0351C78.4859 50.4555 78.3817 50.9063 78.3817 51.3873V52.1601C78.3817 52.8192 78.4954 53.3779 78.7227 53.8362C78.9537 54.2907 79.2738 54.6373 79.6829 54.876C80.092 55.1108 80.5674 55.2282 81.109 55.2282C81.4613 55.2282 81.7795 55.179 82.0636 55.0805C82.3514 54.9782 82.5996 54.8267 82.8079 54.626C83.0162 54.4214 83.1772 54.1676 83.2908 53.8646L84.5863 54.2282C84.4499 54.6676 84.2208 55.054 83.8988 55.3873C83.5768 55.7169 83.1791 55.9745 82.7056 56.1601C82.2321 56.3419 81.6999 56.4328 81.109 56.4328ZM85.8306 58.751V55.001H86.5579C86.7359 54.8154 86.8893 54.6146 87.0181 54.3987C87.1469 54.1828 87.2586 53.9271 87.3533 53.6317C87.4518 53.3324 87.5352 52.9688 87.6033 52.5407C87.6715 52.1089 87.7321 51.5881 87.7852 50.9782L88.0806 47.5237H93.6261V55.001H94.967V58.751H93.6261V56.251H87.1715V58.751H85.8306ZM88.0806 55.001H92.2852V48.7737H89.3306L89.1033 50.9782C89.0086 51.8911 88.8912 52.6885 88.7511 53.3703C88.6109 54.0521 88.3874 54.5957 88.0806 55.001ZM100.292 56.4328C99.5044 56.4328 98.8131 56.2453 98.2184 55.8703C97.6275 55.4953 97.1654 54.9707 96.832 54.2964C96.5025 53.6222 96.3377 52.8343 96.3377 51.9328C96.3377 51.0237 96.5025 50.2301 96.832 49.5521C97.1654 48.8741 97.6275 48.3476 98.2184 47.9726C98.8131 47.5976 99.5044 47.4101 100.292 47.4101C101.08 47.4101 101.77 47.5976 102.36 47.9726C102.955 48.3476 103.417 48.8741 103.747 49.5521C104.08 50.2301 104.247 51.0237 104.247 51.9328C104.247 52.8343 104.08 53.6222 103.747 54.2964C103.417 54.9707 102.955 55.4953 102.36 55.8703C101.77 56.2453 101.08 56.4328 100.292 56.4328ZM100.292 55.2282C100.891 55.2282 101.383 55.0748 101.77 54.768C102.156 54.4612 102.442 54.0578 102.627 53.5578C102.813 53.0578 102.906 52.5161 102.906 51.9328C102.906 51.3495 102.813 50.8059 102.627 50.3021C102.442 49.7983 102.156 49.3911 101.77 49.0805C101.383 48.7699 100.891 48.6146 100.292 48.6146C99.6938 48.6146 99.2013 48.7699 98.815 49.0805C98.4286 49.3911 98.1426 49.7983 97.957 50.3021C97.7714 50.8059 97.6786 51.3495 97.6786 51.9328C97.6786 52.5161 97.7714 53.0578 97.957 53.5578C98.1426 54.0578 98.4286 54.4612 98.815 54.768C99.2013 55.0748 99.6938 55.2282 100.292 55.2282ZM106.294 56.251V47.5237H109.862C110.801 47.5237 111.547 47.7358 112.1 48.1601C112.654 48.5843 112.93 49.1449 112.93 49.8419C112.93 50.3722 112.773 50.7832 112.458 51.0748C112.144 51.3627 111.741 51.5578 111.248 51.6601C111.57 51.7055 111.883 51.8192 112.186 52.001C112.493 52.1828 112.746 52.4328 112.947 52.751C113.148 53.0654 113.248 53.4517 113.248 53.9101C113.248 54.357 113.135 54.7567 112.907 55.1089C112.68 55.4612 112.354 55.7396 111.93 55.9442C111.506 56.1487 110.998 56.251 110.407 56.251H106.294ZM107.566 55.0237H110.407C110.869 55.0237 111.231 54.9139 111.493 54.6942C111.754 54.4745 111.885 54.1752 111.885 53.7964C111.885 53.3457 111.754 52.9915 111.493 52.7339C111.231 52.4726 110.869 52.3419 110.407 52.3419H107.566V55.0237ZM107.566 51.1828H109.862C110.222 51.1828 110.53 51.1336 110.788 51.0351C111.046 50.9328 111.243 50.7889 111.379 50.6032C111.519 50.4139 111.589 50.1904 111.589 49.9328C111.589 49.5654 111.436 49.2775 111.129 49.0692C110.822 48.857 110.4 48.751 109.862 48.751H107.566V51.1828ZM117.846 56.4555C117.293 56.4555 116.791 56.3514 116.341 56.143C115.89 55.9309 115.532 55.626 115.267 55.2282C115.002 54.8267 114.869 54.3419 114.869 53.7737C114.869 53.2737 114.967 52.8684 115.164 52.5578C115.361 52.2434 115.625 51.9972 115.954 51.8192C116.284 51.6411 116.647 51.5086 117.045 51.4214C117.447 51.3305 117.85 51.2586 118.255 51.2055C118.786 51.1373 119.216 51.0862 119.545 51.0521C119.878 51.0142 120.121 50.9517 120.272 50.8646C120.428 50.7775 120.505 50.626 120.505 50.4101V50.3646C120.505 49.804 120.352 49.3684 120.045 49.0578C119.742 48.7472 119.282 48.5919 118.664 48.5919C118.024 48.5919 117.522 48.732 117.159 49.0123C116.795 49.2926 116.539 49.5919 116.392 49.9101L115.119 49.4555C115.346 48.9252 115.649 48.5123 116.028 48.2169C116.411 47.9176 116.827 47.7093 117.278 47.5919C117.733 47.4707 118.18 47.4101 118.619 47.4101C118.899 47.4101 119.221 47.4442 119.585 47.5123C119.952 47.5767 120.306 47.7112 120.647 47.9157C120.992 48.1203 121.278 48.429 121.505 48.8419C121.733 49.2548 121.846 49.8078 121.846 50.501V56.251H120.505V55.0692H120.437C120.346 55.2586 120.195 55.4612 119.983 55.6771C119.77 55.893 119.488 56.0767 119.136 56.2282C118.784 56.3798 118.354 56.4555 117.846 56.4555ZM118.051 55.251C118.581 55.251 119.028 55.1468 119.392 54.9385C119.759 54.7301 120.036 54.4612 120.221 54.1317C120.411 53.8021 120.505 53.4555 120.505 53.0919V51.8646C120.449 51.9328 120.324 51.9953 120.13 52.0521C119.941 52.1051 119.721 52.1525 119.471 52.1942C119.225 52.232 118.984 52.2661 118.75 52.2964C118.519 52.3229 118.331 52.3457 118.187 52.3646C117.839 52.4101 117.513 52.4839 117.21 52.5862C116.911 52.6847 116.668 52.8343 116.483 53.0351C116.301 53.232 116.21 53.501 116.21 53.8419C116.21 54.3078 116.382 54.6601 116.727 54.8987C117.075 55.1336 117.517 55.251 118.051 55.251ZM130.135 51.2737V52.5237H125.316V51.2737H130.135ZM125.635 47.5237V56.251H124.294V47.5237H125.635ZM131.157 47.5237V56.251H129.816V47.5237H131.157ZM134.947 54.2737L139.152 47.5237H140.697V56.251H139.356V49.501L135.174 56.251H133.606V47.5237H134.947V54.2737ZM146.812 56.4328C145.971 56.4328 145.246 56.2472 144.636 55.876C144.03 55.501 143.562 54.9782 143.233 54.3078C142.907 53.6336 142.744 52.8495 142.744 51.9555C142.744 51.0616 142.907 50.2737 143.233 49.5919C143.562 48.9063 144.02 48.3722 144.608 47.9896C145.199 47.6032 145.888 47.4101 146.676 47.4101C147.13 47.4101 147.579 47.4858 148.022 47.6373C148.466 47.7889 148.869 48.0351 149.233 48.376C149.596 48.7131 149.886 49.1601 150.102 49.7169C150.318 50.2737 150.426 50.9593 150.426 51.7737V52.3419H143.699V51.1828H149.062C149.062 50.6904 148.964 50.251 148.767 49.8646C148.574 49.4782 148.297 49.1733 147.937 48.9498C147.581 48.7264 147.161 48.6146 146.676 48.6146C146.142 48.6146 145.68 48.7472 145.289 49.0123C144.903 49.2737 144.606 49.6146 144.397 50.0351C144.189 50.4555 144.085 50.9063 144.085 51.3873V52.1601C144.085 52.8192 144.199 53.3779 144.426 53.8362C144.657 54.2907 144.977 54.6373 145.386 54.876C145.795 55.1108 146.27 55.2282 146.812 55.2282C147.164 55.2282 147.483 55.179 147.767 55.0805C148.055 54.9782 148.303 54.8267 148.511 54.626C148.719 54.4214 148.88 54.1676 148.994 53.8646L150.289 54.2282C150.153 54.6676 149.924 55.054 149.602 55.3873C149.28 55.7169 148.882 55.9745 148.409 56.1601C147.935 56.3419 147.403 56.4328 146.812 56.4328Z" fill="white"/>
</g>
<path d="M80.5731 444.229V455.865H79.164V444.229H80.5731ZM83.1128 449.524V450.774H79.5503V449.524H83.1128ZM92.9822 450.047C92.9822 451.274 92.7606 452.335 92.3174 453.229C91.8742 454.123 91.2662 454.812 90.4935 455.297C89.7208 455.782 88.8382 456.024 87.8458 456.024C86.8534 456.024 85.9708 455.782 85.1981 455.297C84.4253 454.812 83.8174 454.123 83.3742 453.229C82.931 452.335 82.7094 451.274 82.7094 450.047C82.7094 448.82 82.931 447.759 83.3742 446.865C83.8174 445.971 84.4253 445.282 85.1981 444.797C85.9708 444.312 86.8534 444.07 87.8458 444.07C88.8382 444.07 89.7208 444.312 90.4935 444.797C91.2662 445.282 91.8742 445.971 92.3174 446.865C92.7606 447.759 92.9822 448.82 92.9822 450.047ZM91.6185 450.047C91.6185 449.039 91.45 448.189 91.1128 447.496C90.7795 446.803 90.3269 446.278 89.7549 445.922C89.1867 445.566 88.5503 445.388 87.8458 445.388C87.1412 445.388 86.503 445.566 85.931 445.922C85.3628 446.278 84.9102 446.803 84.5731 447.496C84.2397 448.189 84.0731 449.039 84.0731 450.047C84.0731 451.055 84.2397 451.905 84.5731 452.598C84.9102 453.291 85.3628 453.816 85.931 454.172C86.503 454.528 87.1412 454.706 87.8458 454.706C88.5503 454.706 89.1867 454.528 89.7549 454.172C90.3269 453.816 90.7795 453.291 91.1128 452.598C91.45 451.905 91.6185 451.055 91.6185 450.047ZM94.6242 453.638H96.056C96.0863 454.032 96.2644 454.331 96.5901 454.536C96.9197 454.74 97.3477 454.843 97.8742 454.843C98.4121 454.843 98.8723 454.733 99.2549 454.513C99.6375 454.289 99.8287 453.93 99.8287 453.433C99.8287 453.142 99.7568 452.888 99.6128 452.672C99.4689 452.452 99.2662 452.282 99.0049 452.161C98.7435 452.039 98.4348 451.979 98.0787 451.979H96.5787V450.774H98.0787C98.6128 450.774 99.0068 450.653 99.2606 450.411C99.5181 450.168 99.6469 449.865 99.6469 449.502C99.6469 449.111 99.5087 448.799 99.2322 448.564C98.9556 448.325 98.5636 448.206 98.056 448.206C97.5447 448.206 97.1185 448.322 96.7776 448.553C96.4367 448.78 96.2568 449.074 96.2378 449.433H94.8287C94.8439 448.964 94.9878 448.549 95.2606 448.189C95.5333 447.825 95.9045 447.541 96.3742 447.337C96.8439 447.128 97.3818 447.024 97.9878 447.024C98.6015 447.024 99.1337 447.132 99.5844 447.348C100.039 447.56 100.389 447.85 100.636 448.218C100.886 448.581 101.011 448.994 101.011 449.456C101.011 449.949 100.872 450.346 100.596 450.649C100.319 450.952 99.9727 451.168 99.556 451.297V451.388C99.8856 451.411 100.172 451.517 100.414 451.706C100.66 451.892 100.851 452.136 100.988 452.439C101.124 452.738 101.192 453.07 101.192 453.433C101.192 453.964 101.05 454.426 100.766 454.82C100.482 455.21 100.092 455.513 99.5958 455.729C99.0996 455.941 98.5333 456.047 97.8969 456.047C97.2795 456.047 96.7265 455.947 96.2378 455.746C95.7492 455.541 95.3609 455.259 95.0731 454.899C94.789 454.536 94.6394 454.115 94.6242 453.638ZM105.644 456.07C105.091 456.07 104.589 455.966 104.138 455.757C103.688 455.545 103.33 455.24 103.065 454.843C102.799 454.441 102.667 453.956 102.667 453.388C102.667 452.888 102.765 452.483 102.962 452.172C103.159 451.858 103.422 451.611 103.752 451.433C104.082 451.255 104.445 451.123 104.843 451.036C105.244 450.945 105.648 450.873 106.053 450.82C106.583 450.752 107.013 450.7 107.343 450.666C107.676 450.628 107.919 450.566 108.07 450.479C108.226 450.392 108.303 450.24 108.303 450.024V449.979C108.303 449.418 108.15 448.983 107.843 448.672C107.54 448.361 107.08 448.206 106.462 448.206C105.822 448.206 105.32 448.346 104.957 448.627C104.593 448.907 104.337 449.206 104.19 449.524L102.917 449.07C103.144 448.539 103.447 448.127 103.826 447.831C104.208 447.532 104.625 447.324 105.076 447.206C105.53 447.085 105.977 447.024 106.417 447.024C106.697 447.024 107.019 447.058 107.383 447.127C107.75 447.191 108.104 447.325 108.445 447.53C108.79 447.735 109.076 448.043 109.303 448.456C109.53 448.869 109.644 449.422 109.644 450.115V455.865H108.303V454.683H108.235C108.144 454.873 107.993 455.075 107.78 455.291C107.568 455.507 107.286 455.691 106.934 455.843C106.582 455.994 106.152 456.07 105.644 456.07ZM105.849 454.865C106.379 454.865 106.826 454.761 107.19 454.553C107.557 454.344 107.833 454.075 108.019 453.746C108.208 453.416 108.303 453.07 108.303 452.706V451.479C108.246 451.547 108.121 451.61 107.928 451.666C107.739 451.719 107.519 451.767 107.269 451.808C107.023 451.846 106.782 451.88 106.547 451.911C106.316 451.937 106.129 451.96 105.985 451.979C105.637 452.024 105.311 452.098 105.008 452.2C104.708 452.299 104.466 452.449 104.28 452.649C104.099 452.846 104.008 453.115 104.008 453.456C104.008 453.922 104.18 454.274 104.525 454.513C104.873 454.748 105.315 454.865 105.849 454.865ZM118.569 443.865L119.251 444.683C118.985 444.941 118.679 445.121 118.33 445.223C117.982 445.325 117.588 445.388 117.148 445.411C116.709 445.433 116.22 445.456 115.682 445.479C115.076 445.502 114.574 445.649 114.177 445.922C113.779 446.195 113.472 446.589 113.256 447.104C113.04 447.619 112.902 448.252 112.842 449.002H112.955C113.251 448.456 113.66 448.055 114.182 447.797C114.705 447.539 115.266 447.411 115.864 447.411C116.546 447.411 117.16 447.57 117.705 447.888C118.251 448.206 118.682 448.678 119.001 449.303C119.319 449.928 119.478 450.699 119.478 451.615C119.478 452.528 119.315 453.316 118.989 453.979C118.667 454.642 118.215 455.153 117.631 455.513C117.052 455.869 116.372 456.047 115.592 456.047C114.811 456.047 114.128 455.863 113.54 455.496C112.953 455.125 112.497 454.575 112.171 453.848C111.845 453.117 111.682 452.214 111.682 451.138V450.206C111.682 448.263 112.012 446.789 112.671 445.786C113.334 444.782 114.33 444.263 115.66 444.229C116.129 444.214 116.548 444.21 116.915 444.218C117.283 444.225 117.603 444.208 117.876 444.166C118.148 444.125 118.379 444.024 118.569 443.865ZM115.592 454.843C116.118 454.843 116.571 454.71 116.949 454.445C117.332 454.18 117.626 453.807 117.83 453.325C118.035 452.841 118.137 452.271 118.137 451.615C118.137 450.979 118.033 450.437 117.824 449.99C117.62 449.543 117.326 449.202 116.944 448.968C116.561 448.733 116.103 448.615 115.569 448.615C115.179 448.615 114.828 448.682 114.518 448.814C114.207 448.947 113.942 449.142 113.722 449.399C113.503 449.657 113.332 449.971 113.211 450.343C113.093 450.714 113.031 451.138 113.023 451.615C113.023 452.593 113.253 453.375 113.711 453.962C114.169 454.549 114.796 454.843 115.592 454.843ZM122.87 453.888L127.074 447.138H128.62V455.865H127.279V449.115L123.097 455.865H121.529V447.138H122.87V453.888ZM130.303 455.865V454.615H130.621C130.883 454.615 131.101 454.564 131.275 454.462C131.449 454.356 131.589 454.172 131.695 453.911C131.805 453.646 131.888 453.278 131.945 452.808C132.006 452.335 132.049 451.733 132.076 451.002L132.235 447.138H138.053V455.865H136.712V448.388H133.508L133.371 451.502C133.341 452.218 133.277 452.848 133.178 453.394C133.083 453.935 132.938 454.39 132.741 454.757C132.547 455.125 132.29 455.401 131.968 455.587C131.646 455.772 131.243 455.865 130.758 455.865H130.303ZM141.854 453.888L146.059 447.138H147.604V455.865H146.263V449.115L142.082 455.865H140.513V447.138H141.854V453.888ZM148.873 448.388V447.138H155.964V448.388H153.1V455.865H151.759V448.388H148.873ZM159.261 453.888L163.465 447.138H165.011V455.865H163.67V449.115L159.488 455.865H157.92V447.138H159.261V453.888ZM172.467 450.252V451.502H167.376V450.252H172.467ZM78.4822 467.388V466.138H85.5731V467.388H82.7094V474.865H81.3685V467.388H78.4822ZM90.735 475.047C89.8941 475.047 89.1687 474.861 88.5589 474.49C87.9528 474.115 87.485 473.593 87.1555 472.922C86.8297 472.248 86.6668 471.464 86.6668 470.57C86.6668 469.676 86.8297 468.888 87.1555 468.206C87.485 467.521 87.9433 466.986 88.5305 466.604C89.1214 466.218 89.8108 466.024 90.5986 466.024C91.0532 466.024 91.502 466.1 91.9452 466.252C92.3884 466.403 92.7918 466.649 93.1555 466.99C93.5191 467.327 93.8089 467.774 94.0248 468.331C94.2407 468.888 94.3486 469.574 94.3486 470.388V470.956H87.6214V469.797H92.985C92.985 469.305 92.8865 468.865 92.6895 468.479C92.4964 468.093 92.2198 467.788 91.86 467.564C91.5039 467.341 91.0835 467.229 90.5986 467.229C90.0645 467.229 89.6024 467.361 89.2123 467.627C88.8259 467.888 88.5286 468.229 88.3202 468.649C88.1119 469.07 88.0077 469.521 88.0077 470.002V470.774C88.0077 471.433 88.1214 471.992 88.3486 472.45C88.5797 472.905 88.8998 473.252 89.3089 473.49C89.718 473.725 90.1933 473.843 90.735 473.843C91.0873 473.843 91.4055 473.793 91.6895 473.695C91.9774 473.593 92.2255 473.441 92.4339 473.24C92.6422 473.036 92.8032 472.782 92.9168 472.479L94.2123 472.843C94.0759 473.282 93.8467 473.668 93.5248 474.002C93.2028 474.331 92.8051 474.589 92.3316 474.774C91.8581 474.956 91.3259 475.047 90.735 475.047ZM99.9339 475.047C99.1157 475.047 98.4111 474.854 97.8202 474.468C97.2293 474.081 96.7748 473.549 96.4566 472.871C96.1384 472.193 95.9793 471.418 95.9793 470.547C95.9793 469.661 96.1422 468.878 96.468 468.2C96.7975 467.519 97.2558 466.986 97.843 466.604C98.4339 466.218 99.1233 466.024 99.9111 466.024C100.525 466.024 101.078 466.138 101.57 466.365C102.063 466.593 102.466 466.911 102.78 467.32C103.095 467.729 103.29 468.206 103.366 468.752H102.025C101.922 468.354 101.695 468.002 101.343 467.695C100.994 467.384 100.525 467.229 99.9339 467.229C99.4111 467.229 98.9528 467.365 98.5589 467.638C98.1687 467.907 97.8638 468.288 97.6441 468.78C97.4282 469.269 97.3202 469.843 97.3202 470.502C97.3202 471.176 97.4263 471.763 97.6384 472.263C97.8543 472.763 98.1573 473.151 98.5475 473.428C98.9414 473.704 99.4036 473.843 99.9339 473.843C100.282 473.843 100.599 473.782 100.883 473.661C101.167 473.539 101.407 473.365 101.604 473.138C101.801 472.911 101.941 472.638 102.025 472.32H103.366C103.29 472.835 103.102 473.299 102.803 473.712C102.508 474.121 102.116 474.447 101.627 474.689C101.142 474.928 100.578 475.047 99.9339 475.047ZM104.638 467.388V466.138H111.729V467.388H108.866V474.865H107.525V467.388H104.638ZM115.026 472.888L119.231 466.138H120.776V474.865H119.435V468.115L115.253 474.865H113.685V466.138H115.026V472.888ZM123.232 478.138V466.138H124.528V467.524H124.687C124.785 467.373 124.922 467.18 125.096 466.945C125.274 466.706 125.528 466.494 125.857 466.308C126.19 466.119 126.641 466.024 127.209 466.024C127.944 466.024 128.592 466.208 129.153 466.575C129.713 466.943 130.151 467.464 130.465 468.138C130.78 468.812 130.937 469.608 130.937 470.524C130.937 471.449 130.78 472.25 130.465 472.928C130.151 473.602 129.715 474.125 129.158 474.496C128.601 474.863 127.959 475.047 127.232 475.047C126.672 475.047 126.223 474.954 125.886 474.769C125.548 474.579 125.289 474.365 125.107 474.127C124.925 473.884 124.785 473.683 124.687 473.524H124.573V478.138H123.232ZM124.55 470.502C124.55 471.161 124.647 471.742 124.84 472.246C125.033 472.746 125.315 473.138 125.687 473.422C126.058 473.702 126.512 473.843 127.05 473.843C127.611 473.843 128.079 473.695 128.454 473.399C128.833 473.1 129.117 472.699 129.306 472.195C129.499 471.687 129.596 471.123 129.596 470.502C129.596 469.888 129.501 469.335 129.312 468.843C129.126 468.346 128.844 467.954 128.465 467.666C128.09 467.375 127.619 467.229 127.05 467.229C126.505 467.229 126.047 467.367 125.675 467.644C125.304 467.916 125.024 468.299 124.834 468.791C124.645 469.28 124.55 469.85 124.55 470.502ZM136.528 475.047C135.74 475.047 135.048 474.86 134.454 474.485C133.863 474.11 133.401 473.585 133.067 472.911C132.738 472.236 132.573 471.449 132.573 470.547C132.573 469.638 132.738 468.844 133.067 468.166C133.401 467.488 133.863 466.962 134.454 466.587C135.048 466.212 135.74 466.024 136.528 466.024C137.315 466.024 138.005 466.212 138.596 466.587C139.19 466.962 139.653 467.488 139.982 468.166C140.315 468.844 140.482 469.638 140.482 470.547C140.482 471.449 140.315 472.236 139.982 472.911C139.653 473.585 139.19 474.11 138.596 474.485C138.005 474.86 137.315 475.047 136.528 475.047ZM136.528 473.843C137.126 473.843 137.619 473.689 138.005 473.382C138.391 473.075 138.677 472.672 138.863 472.172C139.048 471.672 139.141 471.13 139.141 470.547C139.141 469.964 139.048 469.42 138.863 468.916C138.677 468.413 138.391 468.005 138.005 467.695C137.619 467.384 137.126 467.229 136.528 467.229C135.929 467.229 135.437 467.384 135.05 467.695C134.664 468.005 134.378 468.413 134.192 468.916C134.007 469.42 133.914 469.964 133.914 470.547C133.914 471.13 134.007 471.672 134.192 472.172C134.378 472.672 134.664 473.075 135.05 473.382C135.437 473.689 135.929 473.843 136.528 473.843ZM142.529 474.865V466.138H146.097C147.037 466.138 147.783 466.35 148.336 466.774C148.889 467.199 149.165 467.759 149.165 468.456C149.165 468.986 149.008 469.397 148.694 469.689C148.379 469.977 147.976 470.172 147.484 470.274C147.806 470.32 148.118 470.433 148.421 470.615C148.728 470.797 148.982 471.047 149.182 471.365C149.383 471.68 149.484 472.066 149.484 472.524C149.484 472.971 149.37 473.371 149.143 473.723C148.915 474.075 148.59 474.354 148.165 474.558C147.741 474.763 147.234 474.865 146.643 474.865H142.529ZM143.802 473.638H146.643C147.105 473.638 147.467 473.528 147.728 473.308C147.989 473.089 148.12 472.789 148.12 472.411C148.12 471.96 147.989 471.606 147.728 471.348C147.467 471.087 147.105 470.956 146.643 470.956H143.802V473.638ZM143.802 469.797H146.097C146.457 469.797 146.766 469.748 147.023 469.649C147.281 469.547 147.478 469.403 147.614 469.218C147.754 469.028 147.824 468.805 147.824 468.547C147.824 468.18 147.671 467.892 147.364 467.683C147.057 467.471 146.635 467.365 146.097 467.365H143.802V469.797ZM154.082 475.07C153.529 475.07 153.027 474.966 152.576 474.757C152.125 474.545 151.767 474.24 151.502 473.843C151.237 473.441 151.104 472.956 151.104 472.388C151.104 471.888 151.203 471.483 151.4 471.172C151.597 470.858 151.86 470.611 152.19 470.433C152.519 470.255 152.883 470.123 153.28 470.036C153.682 469.945 154.085 469.873 154.491 469.82C155.021 469.752 155.451 469.7 155.78 469.666C156.114 469.628 156.356 469.566 156.508 469.479C156.663 469.392 156.741 469.24 156.741 469.024V468.979C156.741 468.418 156.587 467.983 156.28 467.672C155.977 467.361 155.517 467.206 154.9 467.206C154.26 467.206 153.758 467.346 153.394 467.627C153.03 467.907 152.775 468.206 152.627 468.524L151.354 468.07C151.582 467.539 151.885 467.127 152.263 466.831C152.646 466.532 153.063 466.324 153.513 466.206C153.968 466.085 154.415 466.024 154.854 466.024C155.135 466.024 155.457 466.058 155.82 466.127C156.188 466.191 156.542 466.325 156.883 466.53C157.227 466.735 157.513 467.043 157.741 467.456C157.968 467.869 158.082 468.422 158.082 469.115V474.865H156.741V473.683H156.672C156.582 473.873 156.43 474.075 156.218 474.291C156.006 474.507 155.724 474.691 155.371 474.843C155.019 474.994 154.589 475.07 154.082 475.07ZM154.286 473.865C154.816 473.865 155.263 473.761 155.627 473.553C155.994 473.344 156.271 473.075 156.457 472.746C156.646 472.416 156.741 472.07 156.741 471.706V470.479C156.684 470.547 156.559 470.61 156.366 470.666C156.176 470.719 155.957 470.767 155.707 470.808C155.46 470.846 155.22 470.88 154.985 470.911C154.754 470.937 154.566 470.96 154.422 470.979C154.074 471.024 153.748 471.098 153.445 471.2C153.146 471.299 152.904 471.449 152.718 471.649C152.536 471.846 152.445 472.115 152.445 472.456C152.445 472.922 152.618 473.274 152.962 473.513C153.311 473.748 153.752 473.865 154.286 473.865ZM166.37 469.888V471.138H161.552V469.888H166.37ZM161.87 466.138V474.865H160.529V466.138H161.87ZM167.393 466.138V474.865H166.052V466.138H167.393ZM171.182 472.888L175.387 466.138H176.932V474.865H175.592V468.115L171.41 474.865H169.842V466.138H171.182V472.888ZM183.047 475.047C182.207 475.047 181.481 474.861 180.871 474.49C180.265 474.115 179.797 473.593 179.468 472.922C179.142 472.248 178.979 471.464 178.979 470.57C178.979 469.676 179.142 468.888 179.468 468.206C179.797 467.521 180.256 466.986 180.843 466.604C181.434 466.218 182.123 466.024 182.911 466.024C183.366 466.024 183.815 466.1 184.258 466.252C184.701 466.403 185.104 466.649 185.468 466.99C185.832 467.327 186.121 467.774 186.337 468.331C186.553 468.888 186.661 469.574 186.661 470.388V470.956H179.934V469.797H185.297C185.297 469.305 185.199 468.865 185.002 468.479C184.809 468.093 184.532 467.788 184.172 467.564C183.816 467.341 183.396 467.229 182.911 467.229C182.377 467.229 181.915 467.361 181.525 467.627C181.138 467.888 180.841 468.229 180.633 468.649C180.424 469.07 180.32 469.521 180.32 470.002V470.774C180.32 471.433 180.434 471.992 180.661 472.45C180.892 472.905 181.212 473.252 181.621 473.49C182.03 473.725 182.506 473.843 183.047 473.843C183.4 473.843 183.718 473.793 184.002 473.695C184.29 473.593 184.538 473.441 184.746 473.24C184.955 473.036 185.116 472.782 185.229 472.479L186.525 472.843C186.388 473.282 186.159 473.668 185.837 474.002C185.515 474.331 185.118 474.589 184.644 474.774C184.171 474.956 183.638 475.047 183.047 475.047Z" fill="#9483B0"/>
<path d="M451.576 455.865H450.099L454.371 444.229H455.826L460.099 455.865H458.621L455.144 446.07H455.053L451.576 455.865ZM452.121 451.32H458.076V452.57H452.121V451.32ZM465.843 443.683L462.093 457.615H460.866L464.616 443.683H465.843ZM467.614 455.865V444.229H471.682C472.493 444.229 473.162 444.369 473.688 444.649C474.215 444.926 474.607 445.299 474.864 445.769C475.122 446.235 475.251 446.752 475.251 447.32C475.251 447.82 475.162 448.233 474.983 448.558C474.809 448.884 474.578 449.142 474.29 449.331C474.006 449.521 473.698 449.661 473.364 449.752V449.865C473.72 449.888 474.078 450.013 474.438 450.24C474.798 450.468 475.099 450.793 475.341 451.218C475.584 451.642 475.705 452.161 475.705 452.774C475.705 453.358 475.573 453.882 475.307 454.348C475.042 454.814 474.624 455.183 474.052 455.456C473.48 455.729 472.735 455.865 471.819 455.865H467.614ZM469.023 454.615H471.819C472.739 454.615 473.393 454.437 473.779 454.081C474.169 453.721 474.364 453.286 474.364 452.774C474.364 452.38 474.264 452.017 474.063 451.683C473.862 451.346 473.576 451.077 473.205 450.877C472.834 450.672 472.394 450.57 471.887 450.57H469.023V454.615ZM469.023 449.343H471.637C472.061 449.343 472.444 449.259 472.785 449.093C473.129 448.926 473.402 448.691 473.603 448.388C473.807 448.085 473.91 447.729 473.91 447.32C473.91 446.808 473.732 446.375 473.376 446.019C473.019 445.659 472.455 445.479 471.682 445.479H469.023V449.343ZM366.491 467.274C366.188 467.278 365.883 467.356 365.576 467.507C365.273 467.659 365.019 467.86 364.814 468.11C364.614 468.356 364.513 468.63 364.513 468.933H363.195C363.195 468.555 363.286 468.191 363.468 467.843C363.65 467.494 363.894 467.183 364.201 466.911C364.511 466.638 364.864 466.422 365.258 466.263C365.655 466.104 366.066 466.024 366.491 466.024C367.286 466.024 367.96 466.225 368.513 466.627C369.07 467.028 369.492 467.558 369.78 468.218C370.072 468.877 370.218 469.593 370.218 470.365V470.683C370.218 471.452 370.072 472.168 369.78 472.831C369.492 473.49 369.07 474.021 368.513 474.422C367.96 474.824 367.286 475.024 366.491 475.024C365.854 475.024 365.288 474.884 364.792 474.604C364.296 474.32 363.905 473.941 363.621 473.468C363.337 472.994 363.195 472.468 363.195 471.888H364.513C364.513 472.218 364.606 472.526 364.792 472.814C364.981 473.098 365.225 473.329 365.525 473.507C365.828 473.682 366.15 473.771 366.491 473.774C366.998 473.771 367.43 473.611 367.786 473.297C368.142 472.983 368.413 472.589 368.599 472.115C368.784 471.642 368.877 471.164 368.877 470.683V470.365C368.877 469.873 368.784 469.392 368.599 468.922C368.417 468.449 368.148 468.057 367.792 467.746C367.439 467.435 367.006 467.278 366.491 467.274ZM369.422 469.843V471.093H365.604V469.843H369.422ZM372.26 474.865V466.138H373.601V469.933H374.488L377.624 466.138H379.351L375.829 470.343L379.397 474.865H377.67L374.806 471.183H373.601V474.865H372.26ZM384.04 475.047C383.222 475.047 382.518 474.854 381.927 474.468C381.336 474.081 380.881 473.549 380.563 472.871C380.245 472.193 380.086 471.418 380.086 470.547C380.086 469.661 380.249 468.878 380.574 468.2C380.904 467.519 381.362 466.986 381.949 466.604C382.54 466.218 383.23 466.024 384.018 466.024C384.631 466.024 385.184 466.138 385.677 466.365C386.169 466.593 386.573 466.911 386.887 467.32C387.201 467.729 387.396 468.206 387.472 468.752H386.131C386.029 468.354 385.802 468.002 385.449 467.695C385.101 467.384 384.631 467.229 384.04 467.229C383.518 467.229 383.059 467.365 382.665 467.638C382.275 467.907 381.97 468.288 381.751 468.78C381.535 469.269 381.427 469.843 381.427 470.502C381.427 471.176 381.533 471.763 381.745 472.263C381.961 472.763 382.264 473.151 382.654 473.428C383.048 473.704 383.51 473.843 384.04 473.843C384.389 473.843 384.705 473.782 384.989 473.661C385.273 473.539 385.514 473.365 385.711 473.138C385.908 472.911 386.048 472.638 386.131 472.32H387.472C387.396 472.835 387.209 473.299 386.91 473.712C386.614 474.121 386.222 474.447 385.733 474.689C385.249 474.928 384.684 475.047 384.04 475.047ZM389.432 474.865V466.138H396.296V474.865H394.955V467.388H390.773V474.865H389.432ZM402.404 475.047C401.563 475.047 400.838 474.861 400.228 474.49C399.622 474.115 399.154 473.593 398.824 472.922C398.499 472.248 398.336 471.464 398.336 470.57C398.336 469.676 398.499 468.888 398.824 468.206C399.154 467.521 399.612 466.986 400.199 466.604C400.79 466.218 401.48 466.024 402.268 466.024C402.722 466.024 403.171 466.1 403.614 466.252C404.057 466.403 404.461 466.649 404.824 466.99C405.188 467.327 405.478 467.774 405.694 468.331C405.91 468.888 406.018 469.574 406.018 470.388V470.956H399.29V469.797H404.654C404.654 469.305 404.555 468.865 404.358 468.479C404.165 468.093 403.889 467.788 403.529 467.564C403.173 467.341 402.752 467.229 402.268 467.229C401.733 467.229 401.271 467.361 400.881 467.627C400.495 467.888 400.198 468.229 399.989 468.649C399.781 469.07 399.677 469.521 399.677 470.002V470.774C399.677 471.433 399.79 471.992 400.018 472.45C400.249 472.905 400.569 473.252 400.978 473.49C401.387 473.725 401.862 473.843 402.404 473.843C402.756 473.843 403.074 473.793 403.358 473.695C403.646 473.593 403.894 473.441 404.103 473.24C404.311 473.036 404.472 472.782 404.586 472.479L405.881 472.843C405.745 473.282 405.516 473.668 405.194 474.002C404.872 474.331 404.474 474.589 404.001 474.774C403.527 474.956 402.995 475.047 402.404 475.047ZM408.057 478.138V466.138H409.353V467.524H409.512C409.61 467.373 409.747 467.18 409.921 466.945C410.099 466.706 410.353 466.494 410.682 466.308C411.016 466.119 411.466 466.024 412.035 466.024C412.769 466.024 413.417 466.208 413.978 466.575C414.538 466.943 414.976 467.464 415.29 468.138C415.605 468.812 415.762 469.608 415.762 470.524C415.762 471.449 415.605 472.25 415.29 472.928C414.976 473.602 414.54 474.125 413.983 474.496C413.427 474.863 412.785 475.047 412.057 475.047C411.497 475.047 411.048 474.954 410.711 474.769C410.374 474.579 410.114 474.365 409.932 474.127C409.751 473.884 409.61 473.683 409.512 473.524H409.398V478.138H408.057ZM409.376 470.502C409.376 471.161 409.472 471.742 409.665 472.246C409.858 472.746 410.141 473.138 410.512 473.422C410.883 473.702 411.338 473.843 411.876 473.843C412.436 473.843 412.904 473.695 413.279 473.399C413.658 473.1 413.942 472.699 414.131 472.195C414.324 471.687 414.421 471.123 414.421 470.502C414.421 469.888 414.326 469.335 414.137 468.843C413.951 468.346 413.669 467.954 413.29 467.666C412.915 467.375 412.444 467.229 411.876 467.229C411.33 467.229 410.872 467.367 410.501 467.644C410.129 467.916 409.849 468.299 409.66 468.791C409.47 469.28 409.376 469.85 409.376 470.502ZM419.148 472.888L423.353 466.138H424.898V474.865H423.557V468.115L419.376 474.865H417.807V466.138H419.148V472.888ZM432.127 473.047L435.172 466.138H436.445L432.672 474.865H431.581L427.877 466.138H429.127L432.127 473.047ZM428.695 466.138V474.865H427.354V466.138H428.695ZM435.559 474.865V466.138H436.9V474.865H435.559ZM443.013 475.047C442.172 475.047 441.447 474.861 440.837 474.49C440.231 474.115 439.763 473.593 439.434 472.922C439.108 472.248 438.945 471.464 438.945 470.57C438.945 469.676 439.108 468.888 439.434 468.206C439.763 467.521 440.222 466.986 440.809 466.604C441.4 466.218 442.089 466.024 442.877 466.024C443.331 466.024 443.78 466.1 444.224 466.252C444.667 466.403 445.07 466.649 445.434 466.99C445.797 467.327 446.087 467.774 446.303 468.331C446.519 468.888 446.627 469.574 446.627 470.388V470.956H439.9V469.797H445.263C445.263 469.305 445.165 468.865 444.968 468.479C444.775 468.093 444.498 467.788 444.138 467.564C443.782 467.341 443.362 467.229 442.877 467.229C442.343 467.229 441.881 467.361 441.491 467.627C441.104 467.888 440.807 468.229 440.599 468.649C440.39 469.07 440.286 469.521 440.286 470.002V470.774C440.286 471.433 440.4 471.992 440.627 472.45C440.858 472.905 441.178 473.252 441.587 473.49C441.996 473.725 442.472 473.843 443.013 473.843C443.366 473.843 443.684 473.793 443.968 473.695C444.256 473.593 444.504 473.441 444.712 473.24C444.921 473.036 445.081 472.782 445.195 472.479L446.491 472.843C446.354 473.282 446.125 473.668 445.803 474.002C445.481 474.331 445.083 474.589 444.61 474.774C444.136 474.956 443.604 475.047 443.013 475.047ZM454.508 469.888V471.138H449.689V469.888H454.508ZM450.008 466.138V474.865H448.667V466.138H450.008ZM455.53 466.138V474.865H454.189V466.138H455.53ZM456.792 467.388V466.138H463.883V467.388H461.019V474.865H459.678V467.388H456.792ZM466.998 469.297H469.498C470.52 469.297 471.303 469.557 471.844 470.075C472.386 470.594 472.657 471.252 472.657 472.047C472.657 472.57 472.536 473.045 472.293 473.473C472.051 473.897 471.695 474.236 471.225 474.49C470.755 474.74 470.18 474.865 469.498 474.865H465.839V466.138H467.18V473.615H469.498C470.028 473.615 470.464 473.475 470.805 473.195C471.145 472.914 471.316 472.555 471.316 472.115C471.316 471.653 471.145 471.276 470.805 470.985C470.464 470.693 470.028 470.547 469.498 470.547H466.998V469.297ZM474.043 474.865V466.138H475.384V474.865H474.043Z" fill="#9483B0"/>
<path d="M422.466 59.344H420.989L425.262 47.7076H426.716L430.989 59.344H429.512L426.035 49.5485H425.944L422.466 59.344ZM423.012 54.7985H428.966V56.0485H423.012V54.7985ZM438.461 54.3667V55.6167H433.643V54.3667H438.461ZM433.961 50.6167V59.344H432.62V50.6167H433.961ZM439.483 50.6167V59.344H438.143V50.6167H439.483ZM444.501 59.5485C443.948 59.5485 443.446 59.4444 442.995 59.236C442.544 59.0239 442.186 58.719 441.921 58.3213C441.656 57.9198 441.523 57.4349 441.523 56.8667C441.523 56.3667 441.622 55.9614 441.819 55.6508C442.016 55.3364 442.279 55.0902 442.608 54.9122C442.938 54.7341 443.302 54.6016 443.699 54.5144C444.101 54.4235 444.504 54.3516 444.91 54.2985C445.44 54.2304 445.87 54.1792 446.199 54.1451C446.533 54.1073 446.775 54.0448 446.927 53.9576C447.082 53.8705 447.16 53.719 447.16 53.5031V53.4576C447.16 52.897 447.006 52.4614 446.699 52.1508C446.396 51.8402 445.936 51.6849 445.319 51.6849C444.679 51.6849 444.177 51.8251 443.813 52.1054C443.449 52.3857 443.194 52.6849 443.046 53.0031L441.773 52.5485C442.001 52.0182 442.304 51.6054 442.682 51.3099C443.065 51.0107 443.482 50.8023 443.932 50.6849C444.387 50.5637 444.834 50.5031 445.273 50.5031C445.554 50.5031 445.876 50.5372 446.239 50.6054C446.607 50.6698 446.961 50.8042 447.302 51.0088C447.646 51.2133 447.932 51.522 448.16 51.9349C448.387 52.3478 448.501 52.9008 448.501 53.594V59.344H447.16V58.1622H447.091C447.001 58.3516 446.849 58.5542 446.637 58.7701C446.425 58.986 446.143 59.1698 445.79 59.3213C445.438 59.4728 445.008 59.5485 444.501 59.5485ZM444.705 58.344C445.235 58.344 445.682 58.2398 446.046 58.0315C446.413 57.8232 446.69 57.5542 446.876 57.2247C447.065 56.8951 447.16 56.5485 447.16 56.1849V54.9576C447.103 55.0258 446.978 55.0883 446.785 55.1451C446.595 55.1982 446.376 55.2455 446.126 55.2872C445.879 55.3251 445.639 55.3591 445.404 55.3894C445.173 55.416 444.985 55.4387 444.841 55.4576C444.493 55.5031 444.167 55.5769 443.864 55.6792C443.565 55.7777 443.323 55.9273 443.137 56.1281C442.955 56.3251 442.864 56.594 442.864 56.9349C442.864 57.4008 443.037 57.7531 443.381 57.9917C443.73 58.2266 444.171 58.344 444.705 58.344ZM450.175 59.344V58.094H450.493C450.755 58.094 450.973 58.0429 451.147 57.9406C451.321 57.8345 451.461 57.6508 451.567 57.3894C451.677 57.1243 451.76 56.7569 451.817 56.2872C451.878 55.8137 451.921 55.2114 451.948 54.4804L452.107 50.6167H457.925V59.344H456.584V51.8667H453.38L453.243 54.9804C453.213 55.6963 453.149 56.3269 453.05 56.8724C452.956 57.4141 452.81 57.8686 452.613 58.236C452.42 58.6035 452.162 58.88 451.84 59.0656C451.518 59.2512 451.115 59.344 450.63 59.344H450.175ZM461.726 57.3667L465.931 50.6167H467.476V59.344H466.135V52.594L461.954 59.344H460.385V50.6167H461.726V57.3667ZM469.387 57.1167H470.819C470.849 57.5107 471.027 57.8099 471.353 58.0144C471.682 58.219 472.11 58.3213 472.637 58.3213C473.175 58.3213 473.635 58.2114 474.018 57.9917C474.4 57.7682 474.591 57.4084 474.591 56.9122C474.591 56.6205 474.519 56.3667 474.376 56.1508C474.232 55.9311 474.029 55.7607 473.768 55.6394C473.506 55.5182 473.198 55.4576 472.841 55.4576H471.341V54.2531H472.841C473.376 54.2531 473.769 54.1319 474.023 53.8894C474.281 53.647 474.41 53.344 474.41 52.9804C474.41 52.5902 474.271 52.2777 473.995 52.0429C473.718 51.8042 473.326 51.6849 472.819 51.6849C472.307 51.6849 471.881 51.8004 471.54 52.0315C471.199 52.2588 471.019 52.5523 471.001 52.9122H469.591C469.607 52.4425 469.751 52.0277 470.023 51.6679C470.296 51.3042 470.667 51.0201 471.137 50.8156C471.607 50.6073 472.144 50.5031 472.751 50.5031C473.364 50.5031 473.896 50.611 474.347 50.8269C474.802 51.0391 475.152 51.3288 475.398 51.6963C475.648 52.0599 475.773 52.4728 475.773 52.9349C475.773 53.4273 475.635 53.8251 475.358 54.1281C475.082 54.4311 474.735 54.647 474.319 54.7758V54.8667C474.648 54.8894 474.934 54.9955 475.177 55.1849C475.423 55.3705 475.614 55.6148 475.751 55.9179C475.887 56.2171 475.955 56.5485 475.955 56.9122C475.955 57.4425 475.813 57.9046 475.529 58.2985C475.245 58.6887 474.855 58.9917 474.358 59.2076C473.862 59.4198 473.296 59.5258 472.66 59.5258C472.042 59.5258 471.489 59.4254 471.001 59.2247C470.512 59.0201 470.124 58.7379 469.836 58.3781C469.552 58.0144 469.402 57.594 469.387 57.1167ZM393.134 78.5258C392.316 78.5258 391.611 78.3326 391.02 77.9463C390.43 77.5599 389.975 77.0277 389.657 76.3497C389.339 75.6716 389.18 74.897 389.18 74.0258C389.18 73.1394 389.342 72.3573 389.668 71.6792C389.998 70.9974 390.456 70.4652 391.043 70.0826C391.634 69.6963 392.323 69.5031 393.111 69.5031C393.725 69.5031 394.278 69.6167 394.77 69.844C395.263 70.0713 395.666 70.3894 395.981 70.7985C396.295 71.2076 396.49 71.6849 396.566 72.2304H395.225C395.123 71.8326 394.895 71.4804 394.543 71.1735C394.195 70.8629 393.725 70.7076 393.134 70.7076C392.611 70.7076 392.153 70.844 391.759 71.1167C391.369 71.3857 391.064 71.7663 390.844 72.2588C390.628 72.7474 390.52 73.3213 390.52 73.9804C390.52 74.6546 390.626 75.2417 390.839 75.7417C391.055 76.2417 391.358 76.63 391.748 76.9065C392.142 77.183 392.604 77.3213 393.134 77.3213C393.483 77.3213 393.799 77.2607 394.083 77.1394C394.367 77.0182 394.608 76.844 394.805 76.6167C395.001 76.3894 395.142 76.1167 395.225 75.7985H396.566C396.49 76.3137 396.303 76.7777 396.003 77.1906C395.708 77.5997 395.316 77.9254 394.827 78.1679C394.342 78.4065 393.778 78.5258 393.134 78.5258ZM397.839 70.8667V69.6167H404.93V70.8667H402.066V78.344H400.725V70.8667H397.839ZM409.001 78.5485C408.448 78.5485 407.946 78.4444 407.495 78.236C407.044 78.0239 406.686 77.719 406.421 77.3213C406.156 76.9198 406.023 76.4349 406.023 75.8667C406.023 75.3667 406.122 74.9614 406.319 74.6508C406.516 74.3364 406.779 74.0902 407.108 73.9122C407.438 73.7341 407.802 73.6016 408.199 73.5144C408.601 73.4235 409.004 73.3516 409.41 73.2985C409.94 73.2304 410.37 73.1792 410.699 73.1451C411.033 73.1073 411.275 73.0448 411.427 72.9576C411.582 72.8705 411.66 72.719 411.66 72.5031V72.4576C411.66 71.897 411.506 71.4614 411.199 71.1508C410.896 70.8402 410.436 70.6849 409.819 70.6849C409.179 70.6849 408.677 70.8251 408.313 71.1054C407.949 71.3857 407.694 71.6849 407.546 72.0031L406.273 71.5485C406.501 71.0182 406.804 70.6054 407.182 70.3099C407.565 70.0107 407.982 69.8023 408.432 69.6849C408.887 69.5637 409.334 69.5031 409.773 69.5031C410.054 69.5031 410.376 69.5372 410.739 69.6054C411.107 69.6698 411.461 69.8042 411.802 70.0088C412.146 70.2133 412.432 70.522 412.66 70.9349C412.887 71.3478 413.001 71.9008 413.001 72.594V78.344H411.66V77.1622H411.591C411.501 77.3516 411.349 77.5542 411.137 77.7701C410.925 77.986 410.643 78.1698 410.29 78.3213C409.938 78.4728 409.508 78.5485 409.001 78.5485ZM409.205 77.344C409.735 77.344 410.182 77.2398 410.546 77.0315C410.913 76.8232 411.19 76.5542 411.376 76.2247C411.565 75.8951 411.66 75.5485 411.66 75.1849V73.9576C411.603 74.0258 411.478 74.0883 411.285 74.1451C411.095 74.1982 410.876 74.2455 410.626 74.2872C410.379 74.3251 410.139 74.3591 409.904 74.3894C409.673 74.416 409.485 74.4387 409.341 74.4576C408.993 74.5031 408.667 74.5769 408.364 74.6792C408.065 74.7777 407.823 74.9273 407.637 75.1281C407.455 75.3251 407.364 75.594 407.364 75.9349C407.364 76.4008 407.537 76.7531 407.881 76.9917C408.23 77.2266 408.671 77.344 409.205 77.344ZM414.26 70.8667V69.6167H421.351V70.8667H418.488V78.344H417.147V70.8667H414.26ZM424.648 76.3667L428.853 69.6167H430.398V78.344H429.057V71.594L424.876 78.344H423.307V69.6167H424.648V76.3667ZM436.4 78.5258C435.581 78.5258 434.877 78.3326 434.286 77.9463C433.695 77.5599 433.241 77.0277 432.922 76.3497C432.604 75.6716 432.445 74.897 432.445 74.0258C432.445 73.1394 432.608 72.3573 432.934 71.6792C433.263 70.9974 433.722 70.4652 434.309 70.0826C434.9 69.6963 435.589 69.5031 436.377 69.5031C436.991 69.5031 437.544 69.6167 438.036 69.844C438.528 70.0713 438.932 70.3894 439.246 70.7985C439.561 71.2076 439.756 71.6849 439.831 72.2304H438.491C438.388 71.8326 438.161 71.4804 437.809 71.1735C437.46 70.8629 436.991 70.7076 436.4 70.7076C435.877 70.7076 435.419 70.844 435.025 71.1167C434.635 71.3857 434.33 71.7663 434.11 72.2588C433.894 72.7474 433.786 73.3213 433.786 73.9804C433.786 74.6546 433.892 75.2417 434.104 75.7417C434.32 76.2417 434.623 76.63 435.013 76.9065C435.407 77.183 435.869 77.3213 436.4 77.3213C436.748 77.3213 437.064 77.2607 437.349 77.1394C437.633 77.0182 437.873 76.844 438.07 76.6167C438.267 76.3894 438.407 76.1167 438.491 75.7985H439.831C439.756 76.3137 439.568 76.7777 439.269 77.1906C438.974 77.5997 438.581 77.9254 438.093 78.1679C437.608 78.4065 437.044 78.5258 436.4 78.5258ZM441.104 70.8667V69.6167H448.195V70.8667H445.331V78.344H443.991V70.8667H441.104ZM451.492 76.3667L455.697 69.6167H457.242V78.344H455.901V71.594L451.719 78.344H450.151V69.6167H451.492V76.3667ZM459.698 78.344V69.6167H461.039V73.4122H461.925L465.062 69.6167H466.789L463.266 73.8213L466.834 78.344H465.107L462.243 74.6622H461.039V78.344H459.698ZM469.633 76.3667L473.837 69.6167H475.383V78.344H474.042V71.594L469.86 78.344H468.292V69.6167H469.633V76.3667Z" fill="#9483B0"/>
<defs>
<clipPath id="clip0_27_23">
<rect width="247" height="274" fill="white"/>
</clipPath>
</defs>
</svg>
