<svg id="Layer_1" enable-background="new 0 0 152 152" height="512" viewBox="0 0 152 152" width="512" xmlns="http://www.w3.org/2000/svg"><g id="_12.left_double_quotation"><path d="m73.9 62.1c-.7-.1-1.3-.1-2-.1-.6 0-1.3 0-1.9.1-.5.1-.9.2-1.3.3-.3.1-.6.3-.9.6s-.5.5-.7.8l-6.3 9.3c-.6.9-1.1 1.8-1.6 2.7-.4.9-.8 1.8-1 2.7-.3 1-.5 2-.6 3-.1 1.1-.2 2.3-.2 3.4 0 .9.1 1.8.3 2.7.2.6.5 1.1 1 1.5s1.2.6 1.8.7c.9.1 1.8.2 2.7.2s1.9 0 2.8-.2c.7-.1 1.3-.3 1.8-.7s.9-.9 1.1-1.5c.3-.9.4-1.8.4-2.7v-7.6l6-13.3c.1-.3.2-.6.2-.9s-.2-.5-.4-.7c-.4-.2-.8-.3-1.2-.3z"/><path d="m94.3 62.5c-.3-.2-.7-.3-1.2-.4-.7-.1-1.3-.1-2-.1s-1.3 0-2 .1c-.5.1-.9.2-1.3.3-.3.1-.6.3-.9.6s-.5.5-.7.8l-6.2 9.3c-.6.9-1.1 1.8-1.6 2.7-.4.9-.8 1.8-1 2.7-.3 1-.5 2-.6 3-.1 1.1-.2 2.3-.2 3.4 0 .9.1 1.8.3 2.7.2.6.5 1.1 1 1.5s1.2.6 1.8.7c.9.1 1.8.2 2.7.2s1.8 0 2.8-.2c.7-.1 1.4-.3 2-.7.5-.4.9-.9 1.1-1.5.3-.9.4-1.8.4-2.7v-7.6l5.7-13.3c.1-.3.2-.6.2-.9s-.1-.5-.3-.6z"/></g></svg>