<svg width="126" height="95" viewBox="0 0 126 95" fill="none" xmlns="http://www.w3.org/2000/svg">
<path d="M55.7743 0.336837C53.4164 -5.14482e-06 51.3953 0 49.0374 0C47.0164 0 44.6585 -5.14482e-06 42.6374 0.336837C40.9532 0.673679 39.6058 1.01053 38.2585 1.34737C37.2479 1.68422 36.2374 2.35789 35.2269 3.36842C34.2164 4.37895 33.5427 5.05263 32.869 6.06316L11.6479 37.3895C9.62688 40.421 7.94268 43.4526 6.25847 46.4842C4.9111 49.5158 3.56373 52.5474 2.89005 55.5789C1.87952 58.9474 1.20583 62.3158 0.868986 65.6842C0.532144 69.3895 0.195312 73.4316 0.195312 77.1368C0.195312 80.1684 0.532152 83.2 1.20584 86.2316C1.87952 88.2526 2.89005 89.9368 4.57426 91.2842C6.25847 92.6316 8.61636 93.3053 10.6374 93.6421C13.669 93.979 16.7006 94.3158 19.7322 94.3158C22.7637 94.3158 26.1321 94.3158 29.1637 93.6421C31.5216 93.3053 33.5427 92.6316 35.2269 91.2842C36.9111 89.9368 38.2585 88.2526 38.9322 86.2316C39.9427 83.2 40.2795 80.1684 40.2795 77.1368V51.5369L60.4901 6.73684C60.8269 5.72632 61.1637 4.71578 61.1637 3.70526C61.1637 2.69473 60.49 2.02106 59.8164 1.34737C58.469 0.673689 57.1216 0.336837 55.7743 0.336837Z" fill="#7A7ADB"/>
<path d="M124.49 1.68421C123.48 1.01053 122.132 0.673679 120.448 0.336837C118.09 -5.14482e-06 116.069 0 113.711 0C111.353 0 109.332 -5.14482e-06 106.974 0.336837C105.29 0.673679 103.943 1.01053 102.595 1.34737C101.585 1.68422 100.574 2.35789 99.5639 3.36842C98.5534 4.37895 97.8797 5.05263 97.206 6.06316L76.3218 37.3895C74.3007 40.421 72.6165 43.4526 70.9323 46.4842C69.5849 49.5158 68.2376 52.5474 67.5639 55.5789C66.5534 58.9474 65.8797 62.3158 65.5428 65.6842C65.206 69.3895 64.8691 73.4316 64.8691 77.1368C64.8691 80.1684 65.206 83.2 65.8797 86.2316C66.5534 88.2526 67.5639 89.9368 69.2481 91.2842C70.9323 92.6316 73.2902 93.3053 75.3112 93.6421C78.3428 93.979 81.3744 94.3158 84.406 94.3158C87.4376 94.3158 90.4691 94.3158 93.8376 93.6421C96.1955 93.3053 98.5533 92.6316 100.574 91.2842C102.259 89.9368 103.606 88.2526 104.28 86.2316C105.29 83.2 105.627 80.1684 105.627 77.1368V51.5369L124.827 6.73684C125.164 5.72632 125.501 4.71578 125.501 3.70526C125.501 2.69473 125.164 2.02105 124.49 1.68421Z" fill="#7A7ADB"/>
</svg>
