<svg width="66" height="66" viewBox="0 0 66 66" fill="none" xmlns="http://www.w3.org/2000/svg">
<g clip-path="url(#clip0_2224_738)">
<path d="M33 66C51.2254 66 66 51.2254 66 33C66 14.7746 51.2254 0 33 0C14.7746 0 0 14.7746 0 33C0 51.2254 14.7746 66 33 66Z" fill="#039BE5"/>
<path d="M15.1002 32.2851L46.9177 20.0173C48.3945 19.4838 49.6842 20.3776 49.2057 22.6106L49.2085 22.6078L43.791 48.1306C43.3895 49.9401 42.3142 50.3801 40.81 49.5276L32.56 43.4473L28.5807 47.2808C28.1407 47.7208 27.7695 48.0921 26.917 48.0921L27.5027 39.6963L42.7927 25.8831C43.4582 25.2973 42.6442 24.9673 41.767 25.5503L22.8717 37.4468L14.7262 34.9058C12.958 34.3448 12.9195 33.1376 15.1002 32.2851Z" fill="white"/>
</g>
<defs>
<clipPath id="clip0_2224_738">
<rect width="66" height="66" fill="white"/>
</clipPath>
</defs>
</svg>
