<svg width="141" height="141" viewBox="0 0 141 141" fill="none" xmlns="http://www.w3.org/2000/svg">
<path d="M78.621 35.5555C65.0749 36.4471 54.3635 47.7171 54.3635 61.4888C54.3635 75.8427 65.9997 87.4789 80.3537 87.4789C94.1254 87.4789 105.395 76.7675 106.287 63.2214H92.3596C91.5188 69.0992 86.4639 73.6175 80.3537 73.6175C73.6552 73.6175 68.2249 68.1873 68.2249 61.4888C68.2249 55.3785 72.7433 50.3236 78.621 49.4829V35.5555Z" fill="#7A7ADB"/>
<path d="M43.5516 38.63C39.4221 45.2646 37.0368 53.0976 37.0368 61.4876C37.0368 85.4109 56.4304 104.804 80.3537 104.804C94.5535 104.804 107.158 97.9719 115.057 87.415L103.59 79.5916C98.2 86.5005 89.7956 90.9431 80.3537 90.9431C64.0859 90.9431 50.8982 77.7554 50.8982 61.4876C50.8982 55.9955 52.4013 50.8544 55.0186 46.4534L43.5516 38.63Z" fill="#7A7ADB"/>
<path d="M82.0863 108.239C81.5114 108.26 80.9338 108.27 80.3537 108.27C54.5166 108.27 33.5715 87.3252 33.5715 61.4881C33.5715 35.651 54.5166 14.7059 80.3537 14.7059C104.434 14.7059 124.265 32.8992 126.85 56.2901H140.778C138.141 25.2308 112.095 0.844482 80.3537 0.844482C46.8611 0.844482 19.7101 27.9955 19.7101 61.4881C19.7101 94.9806 46.8611 122.132 80.3537 122.132C80.9332 122.132 81.5108 122.124 82.0863 122.107V108.239Z" fill="#7A7ADB"/>
<path d="M89.0062 125.48C69.2685 128.777 48.2846 122.812 33.0561 107.583C16.3407 90.8676 10.7854 67.2182 16.3901 45.8939H2.14321C-3.19223 70.8777 3.8449 97.9747 23.2546 117.384C41.1865 135.316 65.6797 142.688 89.0062 139.499L89.0062 125.48Z" fill="#7A7ADB"/>
</svg> 