<svg width="179" height="38" viewBox="0 0 179 38" fill="none" xmlns="http://www.w3.org/2000/svg">
<g clip-path="url(#clip0_2173_64)">
<path d="M113.983 23.4128C116.16 23.4128 117.6 21.9519 117.6 19.7459C117.6 17.6681 115.968 16.1405 113.983 16.1405C111.872 16.1405 110.337 17.6681 110.337 19.778C110.337 22.0187 111.777 23.4128 113.983 23.4128ZM114.304 35.2922C115.518 35.2922 117.405 35.0973 118.495 34.5765C119.388 34.1545 119.901 33.6337 119.901 32.6295C119.901 31.0378 118.143 30.7466 116.447 30.6505C115.486 30.5864 112.704 30.6158 110.945 30.3888C109.984 30.8428 109.184 31.4624 109.184 32.6295C109.184 34.8996 112.641 35.2922 114.304 35.2922ZM113.983 14.1294C115.102 14.1294 116.255 14.3564 117.276 14.8452C117.695 12.5083 118.814 11.9901 121.02 11.9901L121.662 12.0195L121.694 14.0653H121.439C119.964 14.0653 118.814 14.2282 118.556 15.9482C119.548 17.0512 120.125 18.5121 120.125 20.005C120.125 21.6288 119.261 23.1511 118.045 24.1286C116.863 25.034 115.392 25.3918 113.92 25.3918C113.183 25.3918 112.319 25.1328 111.714 25.1328C110.945 25.1328 109.984 25.8138 109.984 26.6578C109.984 27.4349 110.495 27.8916 111.201 28.0519C112.319 28.3136 113.886 28.2495 115.039 28.3136C116.447 28.375 118.527 28.4098 119.804 28.8958C121.31 29.4807 122.299 30.9096 122.299 32.5334C122.299 36.7157 117.405 37.2686 114.27 37.2686C112.767 37.2686 110.911 37.2071 109.505 36.6222C107.939 35.9706 106.723 34.8008 106.723 32.9847C106.723 31.2648 107.649 30.1938 109.184 29.6436C108.257 29.0267 107.618 28.2789 107.618 27.045C107.618 25.4239 108.544 24.7108 109.858 24.0939C108.481 22.9909 107.747 21.53 107.747 19.7459C107.747 16.1752 110.719 14.1294 113.983 14.1294Z" fill="#A1A0A5"/>
<path d="M125.596 14.551V18.4155H125.659C126.428 16.1748 127.802 14.097 130.426 14.097L131.356 14.1637V16.5994H130.842C128.923 16.5994 127.578 17.5395 126.651 19.1927C125.98 20.3945 125.851 21.4334 125.851 22.7314V31.04H123.355V14.551H125.596Z" fill="#A1A0A5"/>
<path d="M135.063 27.1773C135.768 28.4432 137.145 29.2524 138.614 29.2524C140.278 29.2524 141.589 28.3764 142.358 26.8862C143.029 25.5855 143.16 24.0953 143.16 22.6691C143.16 21.1121 142.966 19.4856 142.136 18.1556C141.368 16.9537 140.022 16.2086 138.614 16.2086C137.048 16.2086 135.639 17.1167 134.936 18.5455C134.328 19.7473 134.136 21.3337 134.136 22.6691C134.136 24.1594 134.36 25.882 135.063 27.1773ZM138.809 14.1308C143.574 14.1308 145.94 18.3505 145.94 22.6985C145.94 27.3081 143.318 31.3623 138.39 31.3623C133.528 31.3623 131.354 27.0144 131.354 22.6691C131.354 18.0915 133.912 14.1308 138.809 14.1308Z" fill="#A1A0A5"/>
<path d="M160.976 31.0391H158.704V27.7595H158.638C157.841 29.8053 155.887 31.3623 153.65 31.3623C152.049 31.3623 150.514 30.7774 149.49 29.5142C148.403 28.1521 148.211 26.2692 148.211 24.5813V14.5501H150.707V24.5813C150.707 25.5241 150.772 26.7553 151.249 27.5993C151.731 28.5073 152.849 29.1563 153.874 29.1563C155.216 29.1563 156.369 28.5393 157.233 27.4684C158.222 26.2345 158.478 24.8724 158.478 23.3154V14.5501H160.976V31.0391Z" fill="#A1A0A5"/>
<path d="M171.276 16.3689C169.069 16.3689 167.437 18.3506 166.99 20.3964V24.0633C166.99 26.8542 168.846 29.2231 171.276 29.2231C172.65 29.2231 173.932 28.3765 174.603 27.2094C175.338 25.9434 175.467 24.2235 175.467 22.7653C175.467 20.0705 174.635 16.3689 171.276 16.3689ZM166.99 36.4287H164.494V14.5501H166.766V17.7336H166.829C167.661 15.557 169.42 14.1308 171.852 14.1308C176.396 14.1308 178.281 18.7085 178.281 22.6665C178.281 24.5493 177.931 26.6245 176.97 28.2803C175.848 30.0991 174.061 31.3623 171.852 31.3623C169.612 31.3623 168.109 30.3261 166.99 28.4432V36.4287Z" fill="#A1A0A5"/>
<path d="M0.720703 16.1913C0.720703 25.1435 7.55213 31.6494 16.9582 31.6494C18.2665 31.6494 22.4549 31.4037 25.3401 28.5968C25.3349 29.5262 25.3401 31.0779 25.3401 31.0779H31.7267V13.2668H17.8453V19.6365H23.4921C22.8208 21.9654 20.2646 24.3049 16.7765 24.3049C11.6773 24.3049 9.85822 20.1119 9.85822 16.1913C9.85822 12.268 11.6773 8.0776 16.7765 8.0776C19.3327 8.0776 21.4229 9.00167 22.2285 10.4866L22.3601 10.743H31.6266L31.5003 10.1821C29.9339 3.20887 22.6866 0.730436 16.9582 0.730436C7.55213 0.730436 0.720703 7.23365 0.720703 16.1913Z" fill="#F03D26"/>
<path d="M46.1555 13.3098H40.9115V8.54789H45.8765C46.7242 8.54789 48.6907 8.76689 48.6907 10.8047C48.6907 12.4685 47.8377 13.3098 46.1555 13.3098ZM97.382 2.04468C97.382 2.04468 92.8066 11.5204 92.1327 12.9172C91.4588 11.5204 86.8834 2.04468 86.8834 2.04468H59.1471V27.1842C56.9779 23.4025 53.9715 18.1518 53.6846 17.6471C56.2539 16.4105 57.8308 13.681 57.8308 10.396C57.8308 7.64519 56.7199 5.4178 54.6191 3.94623C52.858 2.71503 50.3965 2.04468 47.6824 2.04468H32.9297V31.0781H40.9115V19.8077H45.45C45.679 20.2724 51.0047 31.0781 51.0047 31.0781H84.2377V24.3933H67.7397V20H79.6335V13.7745H67.7397V8.73217H81.4841C84.4326 13.8813 88.0154 20.1468 88.0839 20.2644V31.0781H96.1815V20.2644C96.3 20.0614 106.612 2.04468 106.612 2.04468H97.382Z" fill="#F03D26"/>
</g>
<defs>
<clipPath id="clip0_2173_64">
<rect width="179" height="38" fill="white"/>
</clipPath>
</defs>
</svg>
