<svg width="117" height="37" viewBox="0 0 117 37" fill="none" xmlns="http://www.w3.org/2000/svg">
<g clip-path="url(#clip0_2174_101)">
<path d="M37.3733 11.5103V8.25381C36.3071 7.7485 35.2971 7.46777 33.9503 7.46777C29.6294 7.46777 26.7676 10.2189 26.7676 14.3737C26.7676 18.4162 29.6294 21.2796 33.6697 21.2796C35.1287 21.2796 36.3071 20.9989 37.4856 20.3813V16.9564C36.5877 18.0232 35.5215 18.5285 34.0625 18.5285C31.4251 18.5285 29.8539 16.9564 29.8539 14.2053C29.8539 11.5664 31.4251 9.88204 33.8942 9.88204C35.2971 9.93818 36.5877 10.4435 37.3733 11.5103Z" fill="#020003"/>
<path d="M78.5605 20.7739H81.5908V7.18665C82.2641 7.86039 82.7692 8.36571 83.5548 9.15174L96.5174 21.5599V0.786039H93.4872V14.261C92.7016 13.475 92.1965 12.9697 91.2426 12.1836L78.5605 0V20.7739Z" fill="#020003"/>
<path d="M98.8184 20.7739H101.849V7.18665C102.522 7.86039 103.027 8.36571 103.813 9.15174L116.719 21.5599V0.786039H113.689V14.261C112.903 13.475 112.398 12.9697 111.444 12.1836L98.8184 0V20.7739Z" fill="#020003"/>
<path d="M56.4512 5.61411L56.5634 2.35766C54.5994 0.897876 52.5231 0.280273 50.1663 0.280273C47.1361 0.280273 44.5548 1.34704 42.5908 3.31214C40.6267 5.27724 39.5605 7.91609 39.5605 10.7795C39.5605 13.6429 40.6267 16.3941 42.5908 18.2469C44.5548 20.212 47.1922 21.2788 50.2785 21.2788C52.6354 21.2788 54.7116 20.605 56.3951 19.4259V15.7203C54.4311 17.4047 52.3548 18.1907 49.998 18.1907C45.9577 18.1907 42.9275 15.1589 42.9275 10.7234C42.9275 6.28786 46.0138 3.25599 50.3346 3.25599C52.5793 3.25599 54.6555 4.04203 56.4512 5.61411Z" fill="#020003"/>
<path d="M67.3373 12.9697H64.4755L66.4395 8.36571C66.7201 7.86039 66.7201 7.57967 67.2251 6.68133C67.6179 7.57967 67.7301 7.7481 68.0107 8.36571L69.9748 12.9697H67.3373ZM67.3373 0L57.6855 20.7739H61.1086L63.3532 15.6646H67.2812H71.2093L73.4539 20.7739H76.8769L67.3373 0Z" fill="#020003"/>
<path d="M0 20.9423L7.68777 0.112305L13.1871 13.868L18.4058 0.112305L26.4302 20.9423H23.2878L18.4058 7.9727L13.1871 21.56L7.68777 7.9727L3.14245 20.9423H0Z" fill="#020003"/>
<path d="M113.184 32.284H113.465C114.138 32.284 114.643 32.284 115.036 32.1717C115.317 32.1717 115.709 31.8909 115.934 31.7787C116.214 31.4979 116.439 31.2733 116.719 30.8803C116.832 30.4873 117 30.0943 117 29.589C117 29.0837 116.888 28.6906 116.719 28.2976C116.607 27.9046 116.327 27.6239 115.934 27.3993C115.653 27.287 115.429 27.1186 115.036 27.0063C114.755 27.0063 114.138 26.894 113.465 26.894H111.108V36.7195H112.567V32.284H113.184ZM112.791 28.2415H113.184C114.082 28.2415 114.643 28.3538 114.868 28.5222C115.148 28.6345 115.373 29.0275 115.373 29.7013C115.373 30.2066 115.26 30.5996 114.98 30.768C114.699 31.0488 114.082 31.0488 113.296 31.0488H112.904L112.791 28.2415ZM98.8187 32.9577C98.8187 34.2491 99.0993 35.3158 99.8849 35.9896C100.558 36.6633 101.568 36.8879 102.915 36.8879C104.206 36.8879 105.272 36.6072 105.945 35.8211C106.619 35.1474 107.012 34.1368 107.012 32.7893V26.8378H105.44V32.8454C105.44 33.7438 105.16 34.4175 104.767 34.8105C104.374 35.2035 103.701 35.4843 102.915 35.4843C102.129 35.4843 101.456 35.2035 101.063 34.8105C100.671 34.4175 100.39 33.6315 100.39 32.8454V26.8378H98.8187V32.9577ZM94.6662 29.8136C94.3856 29.1398 93.9928 28.6345 93.4878 28.1292C92.9827 27.6239 92.4216 27.2309 91.8043 26.9501C91.1309 26.6694 90.5137 26.5571 89.8403 26.5571C89.1669 26.5571 88.3813 26.6694 87.8763 26.9501C87.3712 27.2309 86.6978 27.6239 86.1928 28.1292C85.6878 28.6345 85.295 29.196 85.0144 29.8136C84.7338 30.4873 84.6216 31.1049 84.6216 31.7787C84.6216 32.4524 84.7338 33.2384 85.0144 33.7438C85.295 34.4175 85.6878 34.9228 86.1928 35.4281C86.6978 35.9334 87.259 36.3265 87.8763 36.6072C88.5496 36.8879 89.1669 37.0002 89.8403 37.0002C90.5137 37.0002 91.2993 36.8879 91.8043 36.6072C92.4777 36.3265 92.9827 35.9334 93.4878 35.4281C93.9928 34.9228 94.3856 34.3614 94.6662 33.7438C94.9468 33.07 95.059 32.4524 95.059 31.7787C95.059 31.1049 94.8906 30.4873 94.6662 29.8136ZM93.095 33.07C92.9827 33.463 92.7022 33.9683 92.3094 34.2491C92.0288 34.6421 91.5237 34.9228 91.1309 35.0351C90.7381 35.1474 90.2331 35.3158 89.6719 35.3158C89.1669 35.3158 88.7741 35.2035 88.2129 35.0351C87.8201 34.9228 87.4273 34.6421 87.0345 34.2491C86.754 33.856 86.5295 33.463 86.2489 33.07C86.1367 32.677 85.9683 32.1717 85.9683 31.6102C85.9683 31.1049 86.0806 30.7119 86.2489 30.1504C86.3612 29.7574 86.6417 29.2521 87.0345 28.9714C87.3151 28.5784 87.8201 28.2976 88.2129 28.1853C88.6058 28.073 89.1108 27.9046 89.6719 27.9046C90.177 27.9046 90.5698 28.0169 91.1309 28.1853C91.636 28.2976 91.9165 28.5784 92.3094 28.9714C92.5899 29.3644 92.8144 29.7574 93.095 30.1504C93.2072 30.5435 93.3755 31.0488 93.3755 31.6102C93.3194 32.284 93.2072 32.677 93.095 33.07ZM76.9899 32.284L80.2446 36.6072H82.0964L78.6734 32.1717C79.459 32.0594 79.964 31.7787 80.3568 31.3856C80.7496 30.9926 80.8619 30.3189 80.8619 29.5328C80.8619 29.1398 80.7496 28.6345 80.5813 28.3538C80.4691 27.9608 80.1885 27.68 79.9079 27.4554C79.6273 27.1747 79.4029 27.1747 79.0101 27.0624C78.6173 26.9501 78.1122 26.9501 77.5511 26.9501H75.3065V36.6072H76.7655L76.9899 32.284ZM76.8777 28.2415H77.1583C77.9439 28.2415 78.4489 28.3538 78.8417 28.5222C79.2345 28.6345 79.2345 29.0275 79.2345 29.7013C79.2345 30.2066 79.1223 30.5996 78.8417 30.768C78.5612 31.0488 77.9439 31.0488 77.1583 31.0488H76.8777V28.2415ZM67.3381 32.9577H69.695V33.07C69.695 33.856 69.4144 34.3614 68.9094 34.7544C68.4043 35.1474 67.7309 35.4281 66.8331 35.4281C65.7669 35.4281 64.8691 35.1474 64.1957 34.3614C63.5223 33.6876 63.1295 32.7893 63.1295 31.6102C63.1295 30.5435 63.4101 29.6451 64.1957 28.9714C64.8691 28.2976 65.7669 27.9046 66.8331 27.9046C67.3381 27.9046 67.7309 28.0169 68.2921 28.1853C68.6849 28.4661 69.0777 28.6906 69.4705 29.0837L70.6489 28.1853C70.1439 27.68 69.5827 27.1186 68.9655 26.894C68.4604 26.6133 67.6748 26.501 66.8892 26.501C66.1036 26.501 65.4302 26.6133 64.813 26.894C64.1396 27.1747 63.6345 27.3993 63.1295 27.9608C62.6245 28.4661 62.2317 29.0275 61.9511 29.6451C61.6705 30.3189 61.5583 30.9365 61.5583 31.6102C61.5583 32.3963 61.6705 33.07 61.9511 33.5753C62.2317 34.2491 62.4561 34.7544 63.0173 35.2597C63.5784 35.765 64.0835 36.158 64.7007 36.3265C65.3741 36.6072 65.9914 36.7195 66.777 36.7195C68.236 36.7195 69.4144 36.3265 70.2 35.5404C70.9856 34.7544 71.3784 33.6876 71.3784 32.3963C71.3784 32.284 71.3784 32.1155 71.3784 31.7225C71.3784 31.6102 71.3784 31.4418 71.3784 31.4418H67.4504L67.3381 32.9577ZM51.6259 36.6072H52.0187C53.1971 36.6072 53.9827 36.6072 54.6561 36.3265C55.1612 36.2142 55.7223 35.9334 56.1151 35.6527C56.6201 35.2597 57.1813 34.5859 57.4058 33.9683C57.6863 33.2946 57.7986 32.5085 57.7986 31.6102C57.7986 30.7119 57.6863 29.9258 57.4058 29.2521C57.1252 28.5784 56.6201 28.073 56.1151 27.5677C55.7223 27.287 55.2173 27.0624 54.6561 26.894C54.1511 26.7817 53.0849 26.6133 51.7942 26.6133H49.718V36.4949L51.6259 36.6072ZM51.0086 28.2415H51.5137H52.0187C52.8043 28.2415 53.4777 28.2415 53.8705 28.3538C54.2633 28.4661 54.5439 28.6345 54.9367 28.8591C55.3295 29.1398 55.6101 29.5328 55.8345 30.0381C55.9468 30.5435 56.1151 31.1049 56.1151 31.7225C56.1151 32.3401 56.0029 32.9016 55.8345 33.4069C55.7223 33.9122 55.3295 34.3052 54.9367 34.5859C54.6561 34.8667 54.4317 34.979 54.0389 35.0913C53.646 35.2035 53.141 35.2035 52.3554 35.2035H51.0647L51.0086 28.2415ZM45.5094 36.6072V35.1474H41.8619V26.8378H40.2906V36.6633H45.5094V36.6072ZM31.4806 32.284L34.7353 36.6072H36.587L33.164 32.1717C33.9496 32.0594 34.4547 31.7787 34.8475 31.3856C35.2403 30.9926 35.3525 30.3189 35.3525 29.5328C35.3525 29.1398 35.2403 28.6345 35.0719 28.3538C34.9597 27.9608 34.6791 27.68 34.3986 27.4554C34.118 27.1747 33.8935 27.1747 33.5007 27.0624C33.2201 26.9501 32.659 26.9501 32.154 26.9501H29.7971V36.6072H31.3683V32.284H31.4806ZM31.3683 28.2415H31.6489C32.4345 28.2415 32.9396 28.3538 33.3324 28.5222C33.7252 28.6345 33.7252 29.0275 33.7252 29.7013C33.7252 30.2066 33.613 30.5996 33.3324 30.768C33.0518 31.0488 32.4345 31.0488 31.6489 31.0488H31.3683V28.2415ZM25.364 29.8136C25.0835 29.1398 24.6906 28.6345 24.1856 28.1292C23.6806 27.6239 23.1194 27.2309 22.5022 26.9501C21.8288 26.6694 21.2115 26.5571 20.5381 26.5571C19.8647 26.5571 19.0791 26.6694 18.5741 26.9501C17.9007 27.2309 17.3957 27.6239 16.8906 28.1292C16.3856 28.6345 15.9928 29.196 15.7122 29.8136C15.4317 30.4873 15.3194 31.1049 15.3194 31.7787C15.3194 32.4524 15.4317 33.2384 15.7122 33.7438C15.9928 34.4175 16.3856 34.9228 16.8906 35.4281C17.3957 35.9334 17.9568 36.3265 18.5741 36.6072C19.2475 36.8879 19.8647 37.0002 20.5381 37.0002C21.2115 37.0002 21.9971 36.8879 22.5022 36.6072C23.1755 36.3265 23.6806 35.9334 24.1856 35.4281C24.6906 34.9228 25.0835 34.3614 25.364 33.7438C25.6446 33.07 25.7568 32.4524 25.7568 31.7787C25.6446 31.1049 25.4763 30.4873 25.364 29.8136ZM23.7928 33.07C23.6806 33.463 23.4 33.9683 23.0072 34.2491C22.7266 34.6421 22.2216 34.9228 21.8288 35.0351C21.436 35.1474 20.9309 35.3158 20.3698 35.3158C19.8086 35.3158 19.4719 35.2035 18.9108 35.0351C18.518 34.9228 18.1252 34.6421 17.7324 34.2491C17.4518 33.856 17.2273 33.463 16.9468 33.07C16.8345 32.677 16.6662 32.1717 16.6662 31.6102C16.6662 31.1049 16.7784 30.7119 16.9468 30.1504C17.059 29.7574 17.3396 29.2521 17.7324 28.9714C18.013 28.5784 18.518 28.2976 18.9108 28.1853C19.3036 28.073 19.8086 27.9046 20.3698 27.9046C20.8748 27.9046 21.2676 28.0169 21.8288 28.1853C22.2216 28.2976 22.6144 28.5784 23.0072 28.9714C23.2878 29.3644 23.5122 29.7574 23.7928 30.1504C23.905 30.5435 24.0734 31.0488 24.0734 31.6102C24.0734 32.284 23.905 32.677 23.7928 33.07ZM3.81583 37.0002L6.06043 31.3856C6.17266 31.1049 6.17266 30.9926 6.34101 30.7119C6.34101 30.4312 6.45324 30.2066 6.62158 29.9258C6.62158 30.2066 6.73381 30.3189 6.90216 30.5996C7.0705 30.8803 7.01439 31.1049 7.18273 31.3856L9.25899 37.0002L13.0748 26.7817H11.3914L9.53957 31.7787C9.42734 32.1717 9.25899 32.5647 9.25899 32.677C9.25899 32.9577 9.14676 33.1823 9.14676 33.3507C9.14676 33.07 9.03453 32.8454 8.86619 32.5647C8.75396 32.284 8.75396 32.0594 8.58561 31.7787L6.50935 26.3887L4.54532 31.6102C4.54532 31.6102 4.54532 31.6102 4.54532 31.7225C4.43309 32.2278 4.26475 32.7893 4.04029 33.2946C4.04029 33.0139 3.92806 32.9016 3.75971 32.6208C3.64748 32.3401 3.64748 32.1155 3.47914 31.7225L1.79568 26.7255H0L3.81583 37.0002Z" fill="#020003"/>
</g>
<defs>
<clipPath id="clip0_2174_101">
<rect width="117" height="37" fill="white"/>
</clipPath>
</defs>
</svg>
