<svg width="212" height="36" viewBox="0 0 212 36" fill="none" xmlns="http://www.w3.org/2000/svg">
<path d="M40.0781 8.18688V20.9537C40.0781 21.3682 40.4286 21.7206 40.8409 21.7206C40.9646 21.7206 41.109 21.6791 41.212 21.6169L52.2213 15.2335C52.5924 15.0263 52.7161 14.5496 52.5099 14.1972C52.4481 14.0729 52.345 13.99 52.2213 13.9071L41.212 7.52367C40.8409 7.31642 40.3874 7.44077 40.1812 7.81383C40.0987 7.93818 40.0781 8.06253 40.0781 8.18688Z" fill="#6E37FA"/>
<path d="M15.441 27.4409V14.6741C15.441 14.2596 15.1111 13.9072 14.6782 13.9072C14.5339 13.9072 14.4102 13.9487 14.2865 14.0109L3.29785 20.3943C2.92676 20.6015 2.80306 21.0782 3.02984 21.4513C3.09169 21.5756 3.19477 21.6585 3.29785 21.7207L14.3071 28.1041C14.6782 28.3114 15.1318 28.187 15.3379 27.814C15.3998 27.7103 15.441 27.5653 15.441 27.4409Z" fill="#F40953"/>
<path d="M21.502 18.9435V31.7103C21.502 32.1248 21.8524 32.4772 22.2648 32.4772C22.3885 32.4772 22.5328 32.4357 22.6359 32.3736L33.6245 25.9901C33.9956 25.7829 34.1193 25.3062 33.8925 24.9539C33.8306 24.8295 33.7276 24.7466 33.6245 24.6844L22.6359 18.301C22.2648 18.0938 21.8112 18.2181 21.605 18.5912C21.5432 18.6948 21.502 18.8191 21.502 18.9435Z" fill="#FF9408"/>
<path d="M34.0582 16.7046V3.93774C34.0582 3.52323 33.7077 3.1709 33.2954 3.1709C33.1717 3.1709 33.0274 3.21235 32.9243 3.27453L21.915 9.65794C21.5439 9.8652 21.4202 10.3419 21.647 10.6942C21.7089 10.8186 21.812 10.9015 21.915 10.9636L32.9243 17.3471C33.2954 17.5543 33.7489 17.43 33.9551 17.0776C34.0376 16.974 34.0582 16.8497 34.0582 16.7046Z" fill="#32BBB9"/>
<path d="M102.792 32.4981H99.5143C99.0402 32.4981 98.6484 32.1043 98.6484 31.6276V12.0628C98.6484 11.5862 99.0402 11.1924 99.5143 11.1924H102.792C103.267 11.1924 103.658 11.5862 103.658 12.0628V31.6483C103.658 32.125 103.267 32.4981 102.792 32.4981Z" fill="#002041"/>
<path d="M118.524 8.70508C125.699 8.70508 129.76 13.8242 129.76 20.9745V21.5548C129.76 22.0315 129.368 22.4253 128.894 22.4253H112.504C112.257 22.4253 112.071 22.6118 112.071 22.8605C112.071 22.8812 112.071 22.902 112.071 22.9434C112.731 26.5496 115.741 28.3735 118.936 28.3735C121.204 28.3942 123.41 27.5652 125.101 26.073C125.451 25.7621 126.008 25.8035 126.317 26.1766L128.234 28.4771C128.523 28.8294 128.502 29.3476 128.173 29.6584C125.925 31.7103 122.977 33.0574 118.998 33.0574C111.597 33.0574 106.938 28.1248 106.938 20.9745C106.917 14.1559 111.391 8.70508 118.524 8.70508ZM118.421 13.1818C114.957 13.1818 112.875 15.0056 112.154 18.0937C112.092 18.3217 112.236 18.5496 112.483 18.6118C112.504 18.6118 112.545 18.6325 112.566 18.6325H123.802C124.049 18.6325 124.235 18.446 124.235 18.1973C124.235 18.1766 124.235 18.1559 124.235 18.1351C123.761 15.1714 121.843 13.1818 118.421 13.1818Z" fill="#002041"/>
<path d="M173.735 8.70508C180.91 8.70508 184.971 13.8242 184.971 20.9745V21.5548C184.971 22.0315 184.579 22.4253 184.105 22.4253H167.715C167.488 22.4253 167.282 22.6325 167.303 22.8605C167.303 22.8812 167.303 22.902 167.303 22.9227C167.962 26.5289 170.972 28.3527 174.168 28.3527C176.436 28.3735 178.621 27.5445 180.332 26.0522C180.683 25.7413 181.239 25.7828 181.549 26.1559L183.466 28.4564C183.755 28.8087 183.734 29.3268 183.384 29.6377C181.136 31.6895 178.188 33.0367 174.209 33.0367C166.808 33.0367 162.149 28.104 162.149 20.9538C162.128 14.1559 166.622 8.70508 173.735 8.70508ZM173.632 13.1818C170.168 13.1818 168.086 15.0056 167.364 18.0937C167.303 18.3217 167.447 18.5496 167.694 18.6118C167.715 18.6118 167.756 18.6325 167.777 18.6325H179.013C179.26 18.6325 179.446 18.446 179.446 18.1973C179.446 18.1766 179.446 18.1559 179.446 18.1351C178.972 15.1714 177.054 13.1818 173.632 13.1818Z" fill="#002041"/>
<path d="M137.264 32.4981H133.903C133.429 32.4981 133.037 32.1043 133.037 31.6276V4.06285C133.037 3.58617 133.429 3.19238 133.903 3.19238H137.264C137.738 3.19238 138.129 3.58617 138.129 4.06285V31.6483C138.129 32.125 137.738 32.4981 137.264 32.4981Z" fill="#002041"/>
<path d="M150.623 8.70508C154.437 8.70508 157.261 9.9486 159.241 12.2906C159.55 12.6636 159.509 13.2025 159.138 13.5134L156.787 15.503C156.437 15.7932 155.942 15.7724 155.633 15.4616C154.313 14.1351 152.54 13.3268 150.252 13.3268C147.943 13.3268 146.5 14.1559 146.5 15.6481C146.5 17.2232 148.025 17.5963 151.963 18.5289C156.581 19.6481 159.818 20.9952 159.818 25.6792C159.818 30.4667 156.396 33.0574 150.437 33.0574C146.417 33.0574 142.5 31.4823 140.5 28.9123C140.232 28.56 140.273 28.0419 140.603 27.731L142.933 25.6584C143.283 25.3476 143.84 25.389 144.149 25.7413C145.592 27.3579 147.757 28.4978 150.808 28.4978C153.262 28.4978 154.726 27.6688 154.726 25.9486C154.726 24.2284 153.303 23.8761 149.613 23.0263C145.634 22.1351 141.428 20.7465 141.428 15.8139C141.428 11.3994 144.933 8.70508 150.623 8.70508Z" fill="#002041"/>
<path d="M189.094 9.26445H192.228C192.702 9.26445 193.094 9.65823 193.094 10.1349V11.5028C193.094 11.7308 193.28 11.938 193.527 11.938C193.651 11.938 193.774 11.8758 193.857 11.7929C195.589 9.74113 197.96 8.72559 200.722 8.72559C206.041 8.72559 209.092 12.2075 209.092 18.2593V31.6686C209.092 32.1453 208.701 32.5391 208.227 32.5391H204.866C204.392 32.5391 204 32.1453 204 31.6686V19.1297C204 15.4613 202.248 13.4717 198.97 13.4717C195.218 13.4717 193.238 16.2489 193.238 21.5546V31.6686C193.238 32.1453 192.847 32.5391 192.372 32.5391H189.094C188.62 32.5391 188.229 32.1453 188.229 31.6686V10.1349C188.249 9.65823 188.62 9.26445 189.094 9.26445Z" fill="#002041"/>
<path d="M98.0314 6.07289C97.9695 4.39414 99.289 2.98481 100.938 2.94336C101 2.94336 101.083 2.94336 101.144 2.94336C102.959 2.94336 104.258 4.26978 104.258 6.07289C104.258 7.876 102.938 9.20243 101.144 9.20243C99.3508 9.20243 98.0314 7.89673 98.0314 6.07289Z" fill="#002041"/>
<path d="M65.9714 3.19238H69.4762C69.971 3.19238 70.4452 3.39964 70.775 3.77269L88.1135 23.6691C88.2785 23.8556 88.5465 23.8763 88.7114 23.7105C88.8145 23.6276 88.8557 23.5033 88.8557 23.3789V4.06285C88.8557 3.58617 89.2475 3.21311 89.701 3.19238H93.2471C93.7212 3.19238 94.113 3.58617 94.113 4.06285V31.6483C94.113 32.125 93.7212 32.5188 93.2471 32.5188H89.6804C89.1856 32.5188 88.7114 32.3116 88.3816 31.9178L71.1255 12.0628C70.9606 11.8763 70.6926 11.8556 70.5276 12.0214C70.4245 12.1043 70.3833 12.2287 70.3833 12.353V31.6483C70.3833 32.125 69.9916 32.5188 69.5174 32.5188H65.9714C65.4972 32.5188 65.1055 32.125 65.1055 31.6483V4.06285C65.1055 3.58617 65.4972 3.19238 65.9714 3.19238Z" fill="#002041"/>
</svg>
