<svg width="109" height="42" viewBox="0 0 109 42" fill="none" xmlns="http://www.w3.org/2000/svg">
<g clip-path="url(#clip0_2173_46)">
<path fill-rule="evenodd" clip-rule="evenodd" d="M24.6699 16.1378C24.6699 23.3695 20.9793 29.0878 15.4232 29.0878C9.99214 29.0878 6.09556 23.6131 6.09556 16.0545C6.09556 8.8228 9.78469 3.1045 15.3409 3.1045C20.7726 3.1045 24.6699 8.5792 24.6699 16.1378ZM30.7647 15.9341C30.7647 7.8036 24.4617 1.3475 15.4232 1.3475C7.08993 1.3475 0 7.231 0 16.2575C0 24.388 6.30231 30.8434 15.3409 30.8434C23.6741 30.8434 30.7647 24.9641 30.7647 15.9341ZM44.1963 18.8734C44.1963 21.7336 42.8701 24.185 40.7969 24.185C38.8068 24.185 37.2316 22.0192 37.2316 18.7103C37.2316 15.8914 38.5579 13.3987 40.6725 13.3987C42.6211 13.3987 44.1963 15.5638 44.1963 18.8734ZM58.2974 7.6398C58.2974 5.5965 56.431 4.0852 52.9895 4.0852C48.2631 4.0852 44.6147 7.1092 44.6147 11.7257C44.6147 12.0932 44.6563 12.3795 44.6563 12.6658C43.4317 12.1712 42.1213 11.9214 40.7998 11.9308C37.0691 11.9308 32.591 14.1778 32.591 19.04C32.6161 20.1974 32.9573 21.3262 33.5782 22.3051C34.199 23.2841 35.0759 24.0763 36.1149 24.5966C32.7977 25.0453 30.8913 26.803 30.8913 29.54C30.8913 32.3183 33.1304 34.3203 37.3174 33.8303L43.3708 33.0953C46.3981 32.7278 47.3925 33.789 47.3925 35.3423C47.3925 38.0387 44.8222 40.2045 40.7175 40.2045C37.4419 40.2045 36.2393 39.06 36.2393 37.4255C36.2393 37.1805 36.2815 36.8536 36.2815 36.6086C36.2961 36.3884 36.265 36.1677 36.1903 35.96C36.1155 35.7523 35.9987 35.5621 35.847 35.4012C35.6954 35.2403 35.5121 35.1122 35.3086 35.0247C35.1051 34.9373 34.8857 34.8924 34.6641 34.8929C34.4044 34.8851 34.146 34.9327 33.9063 35.0325C33.6666 35.1323 33.4511 35.2821 33.2743 35.4716C33.0975 35.6612 32.9635 35.8862 32.8813 36.1316C32.7991 36.3769 32.7706 36.637 32.7978 36.8942C32.7978 39.5913 35.4102 42.0042 40.759 42.0042C46.7708 42.0042 50.5852 38.1633 50.5852 33.7512C50.5852 30.2372 47.7244 28.3171 43.7857 28.8071L36.861 29.6646C34.5811 29.9509 33.8765 29.2152 33.8765 28.0714C33.8765 26.7225 35.3695 25.6613 40.5515 25.6613H40.6345C44.4073 25.6613 48.844 23.4136 48.844 18.5514C48.8489 17.0127 48.2548 15.532 47.1865 14.42C46.8115 13.6302 46.6406 12.7596 46.6893 11.8874C46.6893 8.2922 49.1759 6.2496 51.7469 6.2496C52.8249 6.2496 53.1533 6.4127 53.1533 7.1484C53.1533 7.3521 53.1118 7.5159 53.1118 7.7609C53.1469 8.4321 53.4435 9.06324 53.9386 9.52018C54.4338 9.97711 55.0884 10.2238 55.7634 10.2079C56.4384 10.1919 57.0805 9.91456 57.5533 9.43475C58.0261 8.95493 58.2923 8.31049 58.2953 7.6384M71.1475 29.0878L69.1158 28.8834C68.9687 28.867 68.8339 28.7935 68.7408 28.6788C68.6478 28.5642 68.6039 28.4176 68.6187 28.2709V0L61.3213 1.8389V2.6964L63.3944 3.3502C63.5385 3.39722 63.6622 3.49167 63.7452 3.61802C63.8281 3.74436 63.8654 3.89506 63.8508 4.0453V28.1498C63.8461 28.262 63.8183 28.372 63.7689 28.473C63.7195 28.574 63.6497 28.6637 63.5639 28.7366C63.4781 28.8095 63.3781 28.8639 63.2701 28.8965C63.1622 28.9291 63.0486 28.9392 62.9366 28.9261L61.0864 28.9632L59.123 28.9261C59.011 28.9392 58.8974 28.9291 58.7895 28.8965C58.6815 28.8639 58.5815 28.8095 58.4957 28.7366C58.4098 28.6637 58.3401 28.574 58.2907 28.473C58.2413 28.372 58.2135 28.262 58.2088 28.1498V11.8482L50.9135 13.6871V14.5446L52.9859 15.1984C53.13 15.2454 53.2537 15.3399 53.3367 15.4662C53.4197 15.5926 53.4569 15.7433 53.4423 15.8935V28.2723C53.4572 28.419 53.4133 28.5656 53.3202 28.6802C53.2271 28.7949 53.0923 28.8684 52.9452 28.8848L51.2455 29.0892V30.3968H71.1468V29.0899L71.1475 29.0878ZM109 13.8089V12.5426H101.909V13.7676L103.568 14.0945C104.148 14.217 104.314 14.6671 103.941 15.5645L100.127 24.6351C99.9614 25.0026 99.7533 25.0026 99.6288 24.6351L96.0642 15.5645C95.6901 14.6251 95.8982 14.217 96.4777 14.0945L98.1366 13.7676V12.5426H83.378V13.7676L85.0362 14.0945C85.6163 14.217 85.8238 14.6671 85.4504 15.5645L81.7606 25.1251C81.5946 25.4933 81.3878 25.4933 81.2634 25.1251L77.5314 15.5645C77.2001 14.6251 77.3654 14.217 77.9463 14.0945L79.6045 13.7676V12.5426H70.2347V13.8089L71.1489 14.0126C71.4288 14.0571 71.6917 14.1754 71.9103 14.3551C72.1289 14.5348 72.2953 14.7694 72.3922 15.0346L78.736 30.3968H81.5967L87.9405 15.0346C88.2717 14.217 88.6437 13.8901 89.3083 13.8901H89.5565C89.8507 13.8837 90.1383 13.9773 90.3719 14.1554C90.6054 14.3336 90.771 14.5857 90.8413 14.8701L97.4755 30.8042L95.6921 34.9713C94.5318 37.7496 93.6612 38.2403 92.5832 38.2403C92.1275 38.2403 91.6289 38.1584 91.1317 38.1584C90.8702 38.1399 90.6076 38.1746 90.3599 38.2601C90.1122 38.3457 89.8846 38.4804 89.6907 38.6561C89.4969 38.8319 89.3409 39.0449 89.2323 39.2825C89.1236 39.52 89.0645 39.777 89.0586 40.0379C89.0586 41.1411 89.9728 41.9174 91.4222 41.9174C93.4953 41.9174 95.5269 40.2829 97.2266 36.3608L106.265 15.4833C106.4 15.0884 106.641 14.7383 106.963 14.4715C107.285 14.2048 107.675 14.0319 108.089 13.972L109 13.8089Z" fill="#EB3F43"/>
</g>
<defs>
<clipPath id="clip0_2173_46">
<rect width="109" height="42" fill="white"/>
</clipPath>
</defs>
</svg>
