<svg width="254" height="39" viewBox="0 0 254 39" fill="none" xmlns="http://www.w3.org/2000/svg">
<path d="M26.7924 3.42522C26.4593 3.31027 26.1153 3.19093 25.757 3.08683C20.0643 1.40309 16.8976 4.16006 16.056 7.00472C14.903 10.8912 16.8685 13.5541 21.9619 17.472C28.2057 22.2722 30.7901 26.7302 28.9794 32.8459C28.4454 34.6557 27.5518 36.2788 26.3274 37.6218C31.3735 35.5697 35.4799 31.3252 37.1464 25.6992C39.8384 16.6245 35.2561 7.13169 26.7924 3.42522Z" fill="#FF9700"/>
<path d="M17.9415 21.0533C11.8537 16.6419 8.69056 11.8743 10.4261 6.014C10.6863 5.14486 11.0315 4.33729 11.4554 3.59277C6.78703 5.76006 3.04165 9.8448 1.4636 15.1614C-0.183486 20.712 0.893126 26.4157 3.9097 30.864C5.99124 33.4058 8.0064 35.3147 12.0969 36.4413C17.636 37.9685 22.1019 35.8469 23.3448 31.6473C24.5002 27.7596 22.9342 24.8827 17.9415 21.0533Z" fill="#2B3D52"/>
<path d="M54.7185 18.3581C53.0785 17.264 51.9296 16.2867 51.2722 15.4266C50.6145 14.5669 50.286 13.5584 50.286 12.4014C50.286 11.2287 50.5604 10.3024 51.11 9.62238C51.6591 8.94237 52.4443 8.60222 53.4654 8.60222C54.3936 8.60222 55.2637 8.77435 56.0762 9.11831C56.8885 9.46228 57.6658 9.85345 58.4087 10.291L60.4973 5.17843C58.099 3.70904 55.6007 2.97391 53.0015 2.97391C50.2784 2.97391 48.1084 3.83396 46.4919 5.55348C44.8751 7.27358 44.067 9.60303 44.067 12.5421C44.067 14.0745 44.2717 15.419 44.6821 16.5758C45.0919 17.7329 45.672 18.7765 46.4226 19.7067C47.1728 20.6371 48.2753 21.6103 49.7297 22.6264C51.4005 23.7835 52.5994 24.835 53.3267 25.7807C54.0537 26.727 54.4174 27.7703 54.4174 28.9115C54.4174 30.0686 54.1119 30.9832 53.5009 31.6553C52.8896 32.3277 51.981 32.6638 50.7743 32.6638C48.6545 32.6638 46.3262 31.8275 43.7891 30.1546V36.4632C45.8621 37.6358 48.376 38.222 51.3312 38.222C54.3481 38.222 56.6573 37.3701 58.2586 35.6659C59.8598 33.9619 60.6603 31.5072 60.6603 28.3019C60.6603 26.3009 60.2229 24.5186 59.349 22.9548C58.4739 21.3916 56.9308 19.8591 54.7185 18.3581ZM64.5117 37.7528H70.6847V11.6275H64.5117V37.7528ZM67.6446 1.44939C66.5771 1.44939 65.7452 1.75054 65.1498 2.35225C64.554 2.95426 64.2564 3.77121 64.2564 4.8031C64.2564 5.86636 64.5658 6.69093 65.1847 7.2774C65.8034 7.86357 66.6235 8.1568 67.6446 8.1568C68.6193 8.1568 69.416 7.86357 70.0349 7.2774C70.6535 6.69122 70.9632 5.86665 70.9632 4.8031C70.9632 3.77121 70.6615 2.95426 70.0581 2.35225C69.4547 1.75054 68.6501 1.44939 67.6446 1.44939ZM100.877 11.1352C97.9681 11.1352 95.8563 12.6441 94.5414 15.6612H94.3093C93.2571 12.6441 91.1532 11.1352 87.9971 11.1352C86.7748 11.1352 85.6259 11.4439 84.5511 12.0615C83.4757 12.6793 82.6285 13.6526 82.0098 14.9812H81.6153L80.8727 11.6275H75.9761V37.7528H82.1491V25.2063C82.1491 22.0795 82.4507 19.8357 83.0541 18.4757C83.6575 17.1154 84.6242 16.4354 85.955 16.4354C87.8579 16.4354 88.8094 18.3508 88.8094 22.181V37.7528H95.0288V25.0655C95.0288 22.0484 95.3225 19.8556 95.9106 18.4874C96.4984 17.1195 97.4731 16.4354 98.8346 16.4354C100.706 16.4354 101.643 18.3508 101.643 22.181V37.7528H107.862V20.7034C107.862 17.5766 107.27 15.2003 106.087 13.574C104.903 11.948 103.166 11.1352 100.877 11.1352ZM112.898 37.7528H119.071V11.6275H112.898V37.7528ZM116.031 1.44939C114.963 1.44939 114.131 1.75054 113.536 2.35225C112.94 2.95426 112.643 3.77121 112.643 4.8031C112.643 5.86636 112.952 6.69093 113.571 7.2774C114.19 7.86357 115.01 8.1568 116.031 8.1568C117.005 8.1568 117.802 7.86357 118.421 7.2774C119.04 6.69122 119.349 5.86665 119.349 4.8031C119.349 3.77121 119.048 2.95426 118.444 2.35225C117.841 1.75054 117.036 1.44939 116.031 1.44939ZM124.362 37.7528H130.535V1.26172H124.362V37.7528ZM144.505 11.088C141.488 11.088 138.696 11.9087 136.128 13.5505L138.263 17.8657C140.274 16.6462 142.053 16.0366 143.6 16.0366C145.689 16.0366 146.733 17.2561 146.733 19.6949V21.571L143.299 21.7118C140.328 21.8525 138.096 22.5912 136.603 23.928C135.11 25.2649 134.364 27.309 134.364 30.0607C134.364 32.6251 134.909 34.6261 136 36.0644C137.091 37.503 138.587 38.222 140.49 38.222C141.976 38.222 143.205 37.9326 144.18 37.3543C145.155 36.7761 146.098 35.7207 147.011 34.1883H147.151L148.381 37.7528H152.906V20.211C152.906 17.303 152.19 15.0557 150.759 13.4687C149.329 11.8817 147.244 11.088 144.505 11.088ZM146.733 27.7154C146.733 29.4197 146.397 30.7838 145.724 31.8078C145.051 32.8321 144.149 33.3441 143.02 33.3441C141.504 33.3441 140.746 32.2653 140.746 30.1076C140.746 28.6535 141.074 27.5594 141.732 26.8243C142.39 26.0895 143.422 25.6833 144.831 25.6048L146.733 25.5109V27.7154H146.733ZM166.111 12.1905C165.306 12.894 164.564 14.0666 163.883 15.7081H163.674L162.978 11.6275H157.896V37.7528H164.069V24.3148C164.069 22.0323 164.471 20.2928 165.275 19.0967C166.08 17.9006 167.232 17.3027 168.733 17.3027C169.429 17.3027 169.994 17.381 170.427 17.5373L171.147 11.4868C170.419 11.2522 169.677 11.1349 168.919 11.1349C167.851 11.1352 166.915 11.4868 166.111 12.1905ZM199.32 22.8141C199.072 24.2996 198.678 27.3559 198.136 31.9837C197.858 28.857 197.478 25.8473 196.999 22.9548L193.379 3.46625H186.835L183.214 22.9548C182.874 24.7529 182.51 27.7471 182.124 31.9368C181.628 27.794 181.234 24.7529 180.94 22.8141L177.9 3.46625H171.704L177.854 37.7528H185.744L188.97 19.8826L189.921 12.8236L190.107 11.0883C190.323 14.4343 190.687 17.3344 191.197 19.7888L194.516 37.7528H202.406L208.51 3.46625H202.267L199.32 22.8141ZM219.51 11.1352C216.493 11.1352 214.141 12.3471 212.455 14.7701C210.768 17.1937 209.925 20.5626 209.925 24.8778C209.925 29.1306 210.857 32.4174 212.722 34.7393C214.586 37.0611 217.135 38.222 220.368 38.222C223.138 38.222 225.512 37.6203 227.493 36.4163V31.2803C225.389 32.5468 223.331 33.1798 221.32 33.1798C219.742 33.1798 218.504 32.6133 217.607 31.4797C216.709 30.3463 216.238 28.6148 216.191 26.2851H228.607V22.9548C228.607 19.2181 227.795 16.3143 226.17 14.2426C224.545 12.1709 222.325 11.1352 219.51 11.1352ZM216.284 21.7587C216.377 19.7732 216.709 18.3077 217.282 17.3614C217.854 16.4157 218.581 15.9424 219.463 15.9424C220.407 15.9424 221.149 16.4351 221.691 17.42C222.232 18.405 222.518 19.8512 222.55 21.7587H216.284ZM249.911 14.6763C248.565 12.3157 246.716 11.1352 244.364 11.1352C243.219 11.1352 242.206 11.4246 241.324 12.0028C240.442 12.5814 239.622 13.5898 238.864 15.0281H238.539C238.725 12.6829 238.825 11.3152 238.841 10.924C238.856 10.5335 238.864 10.1581 238.864 9.79832V1.26172H232.691V37.7528H237.24L238.284 34.7745H238.679C239.468 36.0565 240.306 36.9517 241.197 37.4596C242.086 37.9675 243.111 38.2217 244.271 38.2217C246.669 38.2217 248.545 37.0414 249.899 34.6806C251.253 32.3201 251.93 28.974 251.93 24.6432C251.93 20.3597 251.257 17.0371 249.911 14.6763ZM242.275 32.8514C241.068 32.8514 240.198 32.2339 239.664 30.9988C239.131 29.764 238.864 27.6298 238.864 24.5963V23.9632C238.895 21.1649 239.169 19.2105 239.688 18.1003C240.206 16.9904 241.053 16.4354 242.229 16.4354C244.488 16.4354 245.617 19.1404 245.617 24.5497C245.617 30.0842 244.503 32.8514 242.275 32.8514Z" fill="#2B3D52"/>
</svg>
