<svg width="234" height="56" viewBox="0 0 234 56" fill="none" xmlns="http://www.w3.org/2000/svg">
<g clip-path="url(#clip0_2173_48)">
<path d="M135.898 29.8033C135.898 24.2725 133.531 19.3857 125.524 19.3857C121.416 19.3857 118.152 20.5566 116.383 21.5815L117.68 26.0188C119.309 24.9968 121.908 24.1551 124.361 24.1551C128.415 24.1494 129.079 26.4425 129.079 27.9168V28.2718C120.23 28.2574 114.637 31.3149 114.637 37.5414C114.637 41.346 117.477 44.913 122.441 44.913C125.469 44.913 128.029 43.6906 129.557 41.7611H129.706C129.706 41.7611 130.714 45.9779 136.288 44.3662C136.004 42.5999 135.898 40.7391 135.898 38.4775V29.8033ZM129.297 35.6434C129.297 36.09 129.26 36.5537 129.128 36.9517C128.618 38.655 126.861 40.0807 124.674 40.0807C122.827 40.0807 121.378 39.0358 121.378 36.8457C121.378 33.4963 125.077 32.5745 129.297 32.5974" fill="#0071CE"/>
<path d="M0.423828 11.8604C0.423828 11.8604 6.2037 35.5068 7.12268 39.3372C8.20478 43.8145 10.1429 45.4692 15.7367 44.367L19.3495 29.704C20.2628 26.0711 20.8839 23.466 21.4737 19.7644H21.5738C21.9832 23.5032 22.573 26.0711 23.3202 29.7154C23.3202 29.7154 24.7944 36.3771 25.5589 39.8668C26.3031 43.3565 28.3987 45.5579 33.8867 44.367L42.4864 11.8604H35.5441L32.5927 25.9222C31.8111 29.996 31.1011 33.2051 30.5486 36.9382H30.4484C29.9504 33.2452 29.3177 30.1677 28.5046 26.177L25.4472 11.8604H18.2044L14.9409 25.8106C14.0104 30.0704 13.1402 33.4857 12.5934 37.1013H12.4989C11.935 33.709 11.1706 29.3891 10.3604 25.2896C10.3604 25.2896 8.42232 15.3014 7.73817 11.8604" fill="#0071CE"/>
<path d="M61.8338 29.8033C61.8338 24.2725 59.4605 19.3857 51.4533 19.3857C47.3568 19.3857 44.0876 20.5566 42.3184 21.5815L43.6152 26.0188C45.2384 24.9968 47.835 24.1551 50.2969 24.1551C54.3505 24.1494 55.0147 26.4425 55.0147 27.9168V28.2718C46.166 28.2574 40.5664 31.3149 40.5664 37.5414C40.5664 41.346 43.4177 44.913 48.3588 44.913C51.4161 44.913 53.9527 43.6906 55.4814 41.7611H55.6358C55.6358 41.7611 56.6493 45.9779 62.2174 44.3662C61.9312 42.5999 61.8338 40.7391 61.8338 38.4775V29.8033ZM55.2266 35.6434C55.2266 36.09 55.1894 36.5537 55.0634 36.9517C54.548 38.655 52.7904 40.0807 50.5975 40.0807C48.7624 40.0807 47.3082 39.0358 47.3082 36.8457C47.3082 33.4963 51.0067 32.5745 55.2266 32.5974" fill="#0071CE"/>
<path d="M65.4355 11.8604V44.3556H72.0428V37.4649V11.8604H65.4355Z" fill="#0071CE"/>
<path d="M156.176 11.8604V35.836C156.176 39.1454 156.797 41.4527 158.134 42.8669C159.308 44.1065 161.228 44.9138 163.516 44.9138C165.48 44.9138 167.401 44.5359 168.308 44.2067L168.228 39.0452C167.549 39.2026 166.774 39.3372 165.709 39.3372C163.453 39.3372 162.709 37.9086 162.709 34.9371V25.7591H168.463V19.5497H162.709V11.8604" fill="#0071CE"/>
<path d="M139.1 19.9502V44.3667H145.93V31.8621C145.93 31.1894 145.973 30.6082 146.079 30.07C146.589 27.4334 148.59 25.7644 151.472 25.7644C152.277 25.7644 152.824 25.8532 153.431 25.9477V19.5465C152.921 19.4549 152.575 19.4062 151.948 19.4062C149.391 19.4062 146.494 21.0294 145.272 24.565H145.103V19.9502" fill="#0071CE"/>
<path d="M75.8789 19.9502V44.3667H82.5347V30.0357C82.5347 29.3629 82.6091 28.6759 82.8468 28.0547C83.3879 26.6032 84.7305 24.9228 86.8861 24.9228C89.5656 24.9228 90.831 27.1844 90.831 30.4479V44.3667H97.4698V29.8639C97.4698 29.2313 97.5586 28.4554 97.7445 27.8943C98.2771 26.2483 99.7314 24.9228 101.741 24.9228C104.449 24.9228 105.76 27.1357 105.76 30.9833V44.3667H112.393V29.9698C112.393 22.4064 108.546 19.4062 104.177 19.4062C102.256 19.4062 100.728 19.8786 99.3534 20.726C98.1911 21.4388 97.1721 22.4436 96.2588 23.7577H96.1587C95.108 21.1296 92.6403 19.4062 89.4167 19.4062C85.283 19.4062 83.405 21.4932 82.3 23.2567H82.1997V19.9502" fill="#0071CE"/>
<path d="M204.211 18.8542C205.516 18.8542 206.616 18.1728 206.759 17.2968L208.053 2.63947C208.053 1.18805 206.344 0 204.211 0C202.067 0 200.369 1.18805 200.369 2.63947L201.675 17.2968C201.812 18.1728 202.906 18.8542 204.211 18.8542Z" fill="#FFC220"/>
<path d="M196.272 23.4408C196.919 22.2957 196.881 21.0247 196.183 20.4578L184.102 12.0098C182.845 11.277 180.965 12.1501 179.888 13.9995C178.815 15.8459 179.032 17.9186 180.263 18.6371L193.638 24.8379C194.494 25.1585 195.613 24.563 196.272 23.4294" fill="#FFC220"/>
<path d="M212.148 23.429C212.832 24.5626 213.951 25.1581 214.784 24.8546L228.159 18.6367C229.402 17.9039 229.588 15.8513 228.537 14.0048C227.464 12.1554 225.571 11.288 224.318 12.0066L212.234 20.446C211.564 21.0214 211.515 22.2982 212.162 23.4404" fill="#FFC220"/>
<path d="M204.211 37.1631C205.516 37.1631 206.616 37.8444 206.759 38.7204L208.053 53.3778C208.053 54.8292 206.344 56.0058 204.211 56.0058C202.067 56.0058 200.369 54.8292 200.369 53.3778L201.675 38.7204C201.812 37.8444 202.906 37.1631 204.211 37.1631Z" fill="#FFC220"/>
<path d="M212.148 32.5893C212.832 31.4528 213.951 30.8459 214.784 31.1751L228.159 37.3816C229.402 38.1001 229.588 40.1699 228.537 42.0193C227.464 43.8543 225.571 44.7274 224.318 44.0089L212.234 35.558C211.564 34.9883 211.515 33.7173 212.162 32.5893" fill="#FFC220"/>
<path d="M196.272 32.5771C196.919 33.7194 196.881 34.9876 196.183 35.5601L184.102 43.9967C182.845 44.7296 180.965 43.8536 179.888 42.0185C178.815 40.172 179.032 38.0994 180.263 37.3808L193.638 31.1744C194.494 30.848 195.613 31.4492 196.272 32.5771Z" fill="#FFC220"/>
<path d="M232.073 42.7227H232.239C232.465 42.7227 232.557 42.7942 232.583 42.9746C232.631 43.175 232.657 43.3095 232.706 43.3668H233.135C233.098 43.3238 233.049 43.2151 233.023 42.9631C232.975 42.7456 232.863 42.6225 232.706 42.5795V42.5394C232.923 42.4908 233.049 42.3448 233.049 42.1644C233.049 42.0012 232.975 41.8839 232.9 41.8094C232.757 41.7407 232.62 41.6863 232.316 41.6863C232.047 41.6863 231.85 41.7092 231.692 41.7465V43.3668H232.073V42.7227ZM232.084 41.9841L232.279 41.9583C232.508 41.9583 232.631 42.0642 232.631 42.2131C232.631 42.3791 232.465 42.4564 232.253 42.4564H232.084V41.9841ZM232.328 40.8848C231.389 40.8848 230.645 41.6176 230.645 42.5165C230.645 43.4384 231.389 44.1712 232.328 44.1712C233.278 44.1712 234 43.4384 234 42.5165C234 41.6176 233.278 40.8848 232.328 40.8848ZM232.328 41.214C233.049 41.214 233.585 41.798 233.585 42.5165C233.585 43.2408 233.049 43.842 232.328 43.8306C231.606 43.8306 231.06 43.2408 231.06 42.5165C231.06 41.798 231.606 41.214 232.316 41.214" fill="#FFC220"/>
</g>
<defs>
<clipPath id="clip0_2173_48">
<rect width="233.576" height="56.0057" fill="white" transform="translate(0.423828)"/>
</clipPath>
</defs>
</svg>
